<svg width="1794" height="864" xmlns="http://www.w3.org/2000/svg" xmlns:xlink="http://www.w3.org/1999/xlink" version="1.1" baseProfile="full" viewBox="0 0 1794 864">
<rect width="1794" height="864" x="0" y="0" fill="none"></rect>
<path d="M179.4 794.5L1614.6 794.5" fill="none" stroke="#E0E6F1" class="zr0-cls-6"></path>
<path d="M179.4 671.5L1614.6 671.5" fill="none" stroke="#E0E6F1" class="zr0-cls-6"></path>
<path d="M179.4 549.5L1614.6 549.5" fill="none" stroke="#E0E6F1" class="zr0-cls-6"></path>
<path d="M179.4 427.5L1614.6 427.5" fill="none" stroke="#E0E6F1" class="zr0-cls-6"></path>
<path d="M179.4 304.5L1614.6 304.5" fill="none" stroke="#E0E6F1" class="zr0-cls-6"></path>
<path d="M179.4 182.5L1614.6 182.5" fill="none" stroke="#E0E6F1" class="zr0-cls-6"></path>
<path d="M179.4 60.5L1614.6 60.5" fill="none" stroke="#E0E6F1" class="zr0-cls-6"></path>
<path d="M179.4 794.5L1614.6 794.5" fill="none" stroke="#6E7079" stroke-linecap="round" class="zr0-cls-6"></path>
<path d="M179.5 794L179.5 799" fill="none" stroke="#6E7079" class="zr0-cls-6"></path>
<path d="M299.5 794L299.5 799" fill="none" stroke="#6E7079" class="zr0-cls-6"></path>
<path d="M418.5 794L418.5 799" fill="none" stroke="#6E7079" class="zr0-cls-6"></path>
<path d="M538.5 794L538.5 799" fill="none" stroke="#6E7079" class="zr0-cls-6"></path>
<path d="M658.5 794L658.5 799" fill="none" stroke="#6E7079" class="zr0-cls-6"></path>
<path d="M777.5 794L777.5 799" fill="none" stroke="#6E7079" class="zr0-cls-6"></path>
<path d="M897.5 794L897.5 799" fill="none" stroke="#6E7079" class="zr0-cls-6"></path>
<path d="M1016.5 794L1016.5 799" fill="none" stroke="#6E7079" class="zr0-cls-6"></path>
<path d="M1136.5 794L1136.5 799" fill="none" stroke="#6E7079" class="zr0-cls-6"></path>
<path d="M1256.5 794L1256.5 799" fill="none" stroke="#6E7079" class="zr0-cls-6"></path>
<path d="M1375.5 794L1375.5 799" fill="none" stroke="#6E7079" class="zr0-cls-6"></path>
<path d="M1495.5 794L1495.5 799" fill="none" stroke="#6E7079" class="zr0-cls-6"></path>
<path d="M1614.5 794L1614.5 799" fill="none" stroke="#6E7079" class="zr0-cls-6"></path>
<text dominant-baseline="central" text-anchor="end" style="font-size:12px;font-family:Microsoft YaHei;" transform="translate(171.4 794)" fill="#6E7079">0</text>
<text dominant-baseline="central" text-anchor="end" style="font-size:12px;font-family:Microsoft YaHei;" transform="translate(171.4 671.6667)" fill="#6E7079">1,000</text>
<text dominant-baseline="central" text-anchor="end" style="font-size:12px;font-family:Microsoft YaHei;" transform="translate(171.4 549.3333)" fill="#6E7079">2,000</text>
<text dominant-baseline="central" text-anchor="end" style="font-size:12px;font-family:Microsoft YaHei;" transform="translate(171.4 427)" fill="#6E7079">3,000</text>
<text dominant-baseline="central" text-anchor="end" style="font-size:12px;font-family:Microsoft YaHei;" transform="translate(171.4 304.6667)" fill="#6E7079">4,000</text>
<text dominant-baseline="central" text-anchor="end" style="font-size:12px;font-family:Microsoft YaHei;" transform="translate(171.4 182.3333)" fill="#6E7079">5,000</text>
<text dominant-baseline="central" text-anchor="end" style="font-size:12px;font-family:Microsoft YaHei;" transform="translate(171.4 60)" fill="#6E7079">6,000</text>
<text dominant-baseline="central" text-anchor="middle" style="font-size:12px;font-family:Microsoft YaHei;" y="6" transform="translate(239.2 802)" fill="#6E7079">easyloggingpp</text>
<text dominant-baseline="central" text-anchor="middle" style="font-size:12px;font-family:Microsoft YaHei;" y="6" transform="translate(358.8 802)" fill="#6E7079">fmtlog_block</text>
<text dominant-baseline="central" text-anchor="middle" style="font-size:12px;font-family:Microsoft YaHei;" y="6" transform="translate(478.4 802)" fill="#6E7079">fmtlog_drop</text>
<text dominant-baseline="central" text-anchor="middle" style="font-size:12px;font-family:Microsoft YaHei;" y="6" transform="translate(598 802)" fill="#6E7079">glog</text>
<text dominant-baseline="central" text-anchor="middle" style="font-size:12px;font-family:Microsoft YaHei;" y="6" transform="translate(717.6 802)" fill="#6E7079">haclog</text>
<text dominant-baseline="central" text-anchor="middle" style="font-size:12px;font-family:Microsoft YaHei;" y="6" transform="translate(837.2 802)" fill="#6E7079">loguru</text>
<text dominant-baseline="central" text-anchor="middle" style="font-size:12px;font-family:Microsoft YaHei;" y="6" transform="translate(956.8 802)" fill="#6E7079">nanolog</text>
<text dominant-baseline="central" text-anchor="middle" style="font-size:12px;font-family:Microsoft YaHei;" y="6" transform="translate(1076.4 802)" fill="#6E7079">quill_block</text>
<text dominant-baseline="central" text-anchor="middle" style="font-size:12px;font-family:Microsoft YaHei;" y="6" transform="translate(1196 802)" fill="#6E7079">quill_drop</text>
<text dominant-baseline="central" text-anchor="middle" style="font-size:12px;font-family:Microsoft YaHei;" y="6" transform="translate(1315.6 802)" fill="#6E7079">reckless</text>
<text dominant-baseline="central" text-anchor="middle" style="font-size:12px;font-family:Microsoft YaHei;" y="6" transform="translate(1435.2 802)" fill="#6E7079">spdlog_async</text>
<text dominant-baseline="central" text-anchor="middle" style="font-size:12px;font-family:Microsoft YaHei;" y="6" transform="translate(1554.8 802)" fill="#6E7079">spdlog_sync</text>
<path d="M188.37 794l17.5276 0l0 -443.4583l-17.5276 0Z" fill="rgb(84,112,198)" class="zr0-cls-7"></path>
<path d="M307.97 794l17.5276 0l0 -12.6003l-17.5276 0Z" fill="#5470c6" class="zr0-cls-7"></path>
<path d="M427.57 794l17.5276 0l0 -12.0865l-17.5276 0Z" fill="#5470c6" class="zr0-cls-7"></path>
<path d="M547.17 794l17.5276 0l0 -530.5597l-17.5276 0Z" fill="rgb(84,112,198)" class="zr0-cls-7"></path>
<path d="M666.77 794l17.5276 0l0 -18.1053l-17.5276 0Z" fill="#5470c6" class="zr0-cls-7"></path>
<path d="M786.37 794l17.5276 0l0 -291.765l-17.5276 0Z" fill="#5470c6" class="zr0-cls-7"></path>
<path d="M905.97 794l17.5276 0l0 -7.34l-17.5276 0Z" fill="#5470c6" class="zr0-cls-7"></path>
<path d="M1384.37 794l17.5276 0l0 -63.3687l-17.5276 0Z" fill="#5470c6" class="zr0-cls-7"></path>
<path d="M1503.97 794l17.5276 0l0 -71.8097l-17.5276 0Z" fill="#5470c6" class="zr0-cls-7"></path>
<path d="M1264.77 794l17.5276 0l0 -57.4967l-17.5276 0Z" fill="#5470c6" class="zr0-cls-7"></path>
<path d="M1025.57 794l17.5276 0l0 -9.8968l-17.5276 0Z" fill="#5470c6" class="zr0-cls-7"></path>
<path d="M1145.17 794l17.5276 0l0 -9.4197l-17.5276 0Z" fill="#5470c6" class="zr0-cls-7"></path>
<path d="M209.4031 794l17.5276 0l0 -429.757l-17.5276 0Z" fill="rgb(145,204,117)" class="zr0-cls-8"></path>
<path d="M329.0031 794l17.5276 0l0 -11.4504l-17.5276 0Z" fill="#91cc75" class="zr0-cls-8"></path>
<path d="M448.6031 794l17.5276 0l0 -3.2785l-17.5276 0Z" fill="#91cc75" class="zr0-cls-8"></path>
<path d="M568.2031 794l17.5276 0l0 -456.181l-17.5276 0Z" fill="rgb(145,204,117)" class="zr0-cls-8"></path>
<path d="M687.8031 794l17.5276 0l0 -5.4805l-17.5276 0Z" fill="#91cc75" class="zr0-cls-8"></path>
<path d="M807.4031 794l17.5276 0l0 -537.4103l-17.5276 0Z" fill="rgb(145,204,117)" class="zr0-cls-8"></path>
<path d="M927.0031 794l17.5276 0l0 -2.6669l-17.5276 0Z" fill="#91cc75" class="zr0-cls-8"></path>
<path d="M1405.4031 794l17.5276 0l0 -172.123l-17.5276 0Z" fill="#91cc75" class="zr0-cls-8"></path>
<path d="M1525.0031 794l17.5276 0l0 -110.834l-17.5276 0Z" fill="#91cc75" class="zr0-cls-8"></path>
<path d="M1285.8031 794l17.5276 0l0 -44.8963l-17.5276 0Z" fill="#91cc75" class="zr0-cls-8"></path>
<path d="M1046.6031 794l17.5276 0l0 -3.4498l-17.5276 0Z" fill="#91cc75" class="zr0-cls-8"></path>
<path d="M1166.2031 794l17.5276 0l0 -3.3886l-17.5276 0Z" fill="#91cc75" class="zr0-cls-8"></path>
<path d="M230.4362 794l17.5276 0l0 -352.0753l-17.5276 0Z" fill="rgb(250,200,88)" class="zr0-cls-9"></path>
<path d="M350.0362 794l17.5276 0l0 -9.1138l-17.5276 0Z" fill="#fac858" class="zr0-cls-9"></path>
<path d="M469.6362 794l17.5276 0l0 -1.7983l-17.5276 0Z" fill="#fac858" class="zr0-cls-9"></path>
<path d="M589.2362 794l17.5276 0l0 -590.503l-17.5276 0Z" fill="rgb(250,200,88)" class="zr0-cls-9"></path>
<path d="M708.8362 794l17.5276 0l0 -3.1562l-17.5276 0Z" fill="#fac858" class="zr0-cls-9"></path>
<path d="M828.4362 794l17.5276 0l0 -548.1757l-17.5276 0Z" fill="#fac858" class="zr0-cls-9"></path>
<path d="M948.0362 794l17.5276 0l0 -1.6637l-17.5276 0Z" fill="#fac858" class="zr0-cls-9"></path>
<path d="M1426.4362 794l17.5276 0l0 -240.2627l-17.5276 0Z" fill="#fac858" class="zr0-cls-9"></path>
<path d="M1546.0362 794l17.5276 0l0 -127.716l-17.5276 0Z" fill="#fac858" class="zr0-cls-9"></path>
<path d="M1306.8362 794l17.5276 0l0 -56.3957l-17.5276 0Z" fill="#fac858" class="zr0-cls-9"></path>
<path d="M1067.6362 794l17.5276 0l0 -1.9451l-17.5276 0Z" fill="#fac858" class="zr0-cls-9"></path>
<path d="M1187.2362 794l17.5276 0l0 -1.8717l-17.5276 0Z" fill="#fac858" class="zr0-cls-9"></path>
<path d="M251.4693 794l17.5276 0l0 -330.5447l-17.5276 0Z" fill="rgb(238,102,102)" class="zr0-cls-10"></path>
<path d="M371.0693 794l17.5276 0l0 -5.9209l-17.5276 0Z" fill="#ee6666" class="zr0-cls-10"></path>
<path d="M490.6693 794l17.5276 0l0 -1.2356l-17.5276 0Z" fill="#ee6666" class="zr0-cls-10"></path>
<path d="M610.2693 794l17.5276 0l0 -725.192l-17.5276 0Z" fill="rgb(238,102,102)" class="zr0-cls-10"></path>
<path d="M729.8693 794l17.5276 0l0 -3.6455l-17.5276 0Z" fill="#ee6666" class="zr0-cls-10"></path>
<path d="M849.4693 794l17.5276 0l0 -675.5247l-17.5276 0Z" fill="#ee6666" class="zr0-cls-10"></path>
<path d="M969.0693 794l17.5276 0l0 -1.4435l-17.5276 0Z" fill="#ee6666" class="zr0-cls-10"></path>
<path d="M1447.4693 794l17.5276 0l0 -220.4447l-17.5276 0Z" fill="#ee6666" class="zr0-cls-10"></path>
<path d="M1567.0693 794l17.5276 0l0 -154.874l-17.5276 0Z" fill="#ee6666" class="zr0-cls-10"></path>
<path d="M1327.8693 794l17.5276 0l0 -54.8053l-17.5276 0Z" fill="#ee6666" class="zr0-cls-10"></path>
<path d="M1088.6693 794l17.5276 0l0 -1.3946l-17.5276 0Z" fill="#ee6666" class="zr0-cls-10"></path>
<path d="M1208.2693 794l17.5276 0l0 -1.0778l-17.5276 0Z" fill="#ee6666" class="zr0-cls-10"></path>
<path d="M272.5024 794l17.5276 0l0 -329.199l-17.5276 0Z" fill="rgb(115,192,222)" class="zr0-cls-11"></path>
<path d="M392.1024 794l17.5276 0l0 -3.8168l-17.5276 0Z" fill="#73c0de" class="zr0-cls-11"></path>
<path d="M511.7024 794l17.5276 0l0 -0.7719l-17.5276 0Z" fill="#73c0de" class="zr0-cls-11"></path>
<path d="M631.3024 794l17.5276 0l0 -726.293l-17.5276 0Z" fill="rgb(115,192,222)" class="zr0-cls-11"></path>
<path d="M750.9024 794l17.5276 0l0 -2.0797l-17.5276 0Z" fill="#73c0de" class="zr0-cls-11"></path>
<path d="M870.5024 794l17.5276 0l0 -523.9537l-17.5276 0Z" fill="rgb(115,192,222)" class="zr0-cls-11"></path>
<path d="M990.1024 794l17.5276 0l0 -0.7952l-17.5276 0Z" fill="#73c0de" class="zr0-cls-11"></path>
<path d="M1348.9024 794l17.5276 0l0 -48.077l-17.5276 0Z" fill="#73c0de" class="zr0-cls-11"></path>
<path d="M1468.5024 794l17.5276 0l0 -207.5997l-17.5276 0Z" fill="#73c0de" class="zr0-cls-11"></path>
<path d="M1588.1024 794l17.5276 0l0 -152.672l-17.5276 0Z" fill="#73c0de" class="zr0-cls-11"></path>
<path d="M1109.7024 794l17.5276 0l0 -0.7303l-17.5276 0Z" fill="#73c0de" class="zr0-cls-11"></path>
<path d="M1229.3024 794l17.5276 0l0 -0.5958l-17.5276 0Z" fill="#73c0de" class="zr0-cls-11"></path>
<path d="M-5 -5l249.2598 0l0 24l-249.2598 0Z" transform="translate(777.3701 5)" fill="rgb(0,0,0)" fill-opacity="0" stroke="#ccc" stroke-width="0" class="zr0-cls-6"></path>
<path d="M3.5 0L21.5 0A3.5 3.5 0 0 1 25 3.5L25 10.5A3.5 3.5 0 0 1 21.5 14L3.5 14A3.5 3.5 0 0 1 0 10.5L0 3.5A3.5 3.5 0 0 1 3.5 0" transform="translate(777.3701 5)" fill="#5470c6" class="zr0-cls-6"></path>
<text dominant-baseline="central" text-anchor="start" style="font-size:12px;font-family:Microsoft YaHei;" x="30" y="7" transform="translate(777.3701 5)" fill="#333">1</text>
<path d="M0 0l37.0371 0l0 14l-37.0371 0Z" transform="translate(777.3701 5)" fill="none" class="zr0-cls-12"></path>
<path d="M3.5 0L21.5 0A3.5 3.5 0 0 1 25 3.5L25 10.5A3.5 3.5 0 0 1 21.5 14L3.5 14A3.5 3.5 0 0 1 0 10.5L0 3.5A3.5 3.5 0 0 1 3.5 0" transform="translate(824.4072 5)" fill="#91cc75" class="zr0-cls-6"></path>
<text dominant-baseline="central" text-anchor="start" style="font-size:12px;font-family:Microsoft YaHei;" x="30" y="7" transform="translate(824.4072 5)" fill="#333">3</text>
<path d="M0 0l37.0371 0l0 14l-37.0371 0Z" transform="translate(824.4072 5)" fill="none" class="zr0-cls-12"></path>
<path d="M3.5 0L21.5 0A3.5 3.5 0 0 1 25 3.5L25 10.5A3.5 3.5 0 0 1 21.5 14L3.5 14A3.5 3.5 0 0 1 0 10.5L0 3.5A3.5 3.5 0 0 1 3.5 0" transform="translate(871.4443 5)" fill="#fac858" class="zr0-cls-6"></path>
<text dominant-baseline="central" text-anchor="start" style="font-size:12px;font-family:Microsoft YaHei;" x="30" y="7" transform="translate(871.4443 5)" fill="#333">6</text>
<path d="M0 0l37.0371 0l0 14l-37.0371 0Z" transform="translate(871.4443 5)" fill="none" class="zr0-cls-12"></path>
<path d="M3.5 0L21.5 0A3.5 3.5 0 0 1 25 3.5L25 10.5A3.5 3.5 0 0 1 21.5 14L3.5 14A3.5 3.5 0 0 1 0 10.5L0 3.5A3.5 3.5 0 0 1 3.5 0" transform="translate(918.4814 5)" fill="#ee6666" class="zr0-cls-6"></path>
<text dominant-baseline="central" text-anchor="start" style="font-size:12px;font-family:Microsoft YaHei;" x="30" y="7" transform="translate(918.4814 5)" fill="#333">12</text>
<path d="M0 0l44.0742 0l0 14l-44.0742 0Z" transform="translate(918.4814 5)" fill="none" class="zr0-cls-12"></path>
<path d="M3.5 0L21.5 0A3.5 3.5 0 0 1 25 3.5L25 10.5A3.5 3.5 0 0 1 21.5 14L3.5 14A3.5 3.5 0 0 1 0 10.5L0 3.5A3.5 3.5 0 0 1 3.5 0" transform="translate(972.5557 5)" fill="#73c0de" class="zr0-cls-6"></path>
<text dominant-baseline="central" text-anchor="start" style="font-size:12px;font-family:Microsoft YaHei;" x="30" y="7" transform="translate(972.5557 5)" fill="#333">24</text>
<path d="M0 0l44.0742 0l0 14l-44.0742 0Z" transform="translate(972.5557 5)" fill="none" class="zr0-cls-12"></path>
<style ><![CDATA[
.zr0-cls-6:hover {
pointer-events:none;
}
.zr0-cls-7:hover {
cursor:pointer;
fill:rgba(92,123,217,1);
}
.zr0-cls-8:hover {
cursor:pointer;
fill:rgba(159,224,128,1);
}
.zr0-cls-9:hover {
cursor:pointer;
fill:rgba(255,220,96,1);
}
.zr0-cls-10:hover {
cursor:pointer;
fill:rgba(255,112,112,1);
}
.zr0-cls-11:hover {
cursor:pointer;
fill:rgba(126,211,244,1);
}
.zr0-cls-12:hover {
cursor:pointer;
fill:rgba(0,0,0,0);
}

]]>

</style>
</svg>