<svg width="1794" height="864" xmlns="http://www.w3.org/2000/svg" xmlns:xlink="http://www.w3.org/1999/xlink" version="1.1" baseProfile="full" viewBox="0 0 1794 864">
<rect width="1794" height="864" x="0" y="0" fill="none"></rect>
<path d="M179.4 794.5L1614.6 794.5" fill="none" stroke="#E0E6F1" class="zr0-cls-0"></path>
<path d="M179.4 671.5L1614.6 671.5" fill="none" stroke="#E0E6F1" class="zr0-cls-0"></path>
<path d="M179.4 549.5L1614.6 549.5" fill="none" stroke="#E0E6F1" class="zr0-cls-0"></path>
<path d="M179.4 427.5L1614.6 427.5" fill="none" stroke="#E0E6F1" class="zr0-cls-0"></path>
<path d="M179.4 304.5L1614.6 304.5" fill="none" stroke="#E0E6F1" class="zr0-cls-0"></path>
<path d="M179.4 182.5L1614.6 182.5" fill="none" stroke="#E0E6F1" class="zr0-cls-0"></path>
<path d="M179.4 60.5L1614.6 60.5" fill="none" stroke="#E0E6F1" class="zr0-cls-0"></path>
<path d="M179.4 794.5L1614.6 794.5" fill="none" stroke="#6E7079" stroke-linecap="round" class="zr0-cls-0"></path>
<path d="M179.5 794L179.5 799" fill="none" stroke="#6E7079" class="zr0-cls-0"></path>
<path d="M323.5 794L323.5 799" fill="none" stroke="#6E7079" class="zr0-cls-0"></path>
<path d="M466.5 794L466.5 799" fill="none" stroke="#6E7079" class="zr0-cls-0"></path>
<path d="M610.5 794L610.5 799" fill="none" stroke="#6E7079" class="zr0-cls-0"></path>
<path d="M753.5 794L753.5 799" fill="none" stroke="#6E7079" class="zr0-cls-0"></path>
<path d="M897.5 794L897.5 799" fill="none" stroke="#6E7079" class="zr0-cls-0"></path>
<path d="M1040.5 794L1040.5 799" fill="none" stroke="#6E7079" class="zr0-cls-0"></path>
<path d="M1184.5 794L1184.5 799" fill="none" stroke="#6E7079" class="zr0-cls-0"></path>
<path d="M1327.5 794L1327.5 799" fill="none" stroke="#6E7079" class="zr0-cls-0"></path>
<path d="M1471.5 794L1471.5 799" fill="none" stroke="#6E7079" class="zr0-cls-0"></path>
<path d="M1614.5 794L1614.5 799" fill="none" stroke="#6E7079" class="zr0-cls-0"></path>
<text dominant-baseline="central" text-anchor="end" style="font-size:12px;font-family:Microsoft YaHei;" transform="translate(171.4 794)" fill="#6E7079">0</text>
<text dominant-baseline="central" text-anchor="end" style="font-size:12px;font-family:Microsoft YaHei;" transform="translate(171.4 671.6667)" fill="#6E7079">1,000</text>
<text dominant-baseline="central" text-anchor="end" style="font-size:12px;font-family:Microsoft YaHei;" transform="translate(171.4 549.3333)" fill="#6E7079">2,000</text>
<text dominant-baseline="central" text-anchor="end" style="font-size:12px;font-family:Microsoft YaHei;" transform="translate(171.4 427)" fill="#6E7079">3,000</text>
<text dominant-baseline="central" text-anchor="end" style="font-size:12px;font-family:Microsoft YaHei;" transform="translate(171.4 304.6667)" fill="#6E7079">4,000</text>
<text dominant-baseline="central" text-anchor="end" style="font-size:12px;font-family:Microsoft YaHei;" transform="translate(171.4 182.3333)" fill="#6E7079">5,000</text>
<text dominant-baseline="central" text-anchor="end" style="font-size:12px;font-family:Microsoft YaHei;" transform="translate(171.4 60)" fill="#6E7079">6,000</text>
<text dominant-baseline="central" text-anchor="middle" style="font-size:12px;font-family:Microsoft YaHei;" y="6" transform="translate(251.16 802)" fill="#6E7079">easyloggingpp</text>
<text dominant-baseline="central" text-anchor="middle" style="font-size:12px;font-family:Microsoft YaHei;" y="6" transform="translate(394.68 802)" fill="#6E7079">fmtlog_block</text>
<text dominant-baseline="central" text-anchor="middle" style="font-size:12px;font-family:Microsoft YaHei;" y="6" transform="translate(538.2 802)" fill="#6E7079">fmtlog_drop</text>
<text dominant-baseline="central" text-anchor="middle" style="font-size:12px;font-family:Microsoft YaHei;" y="6" transform="translate(681.72 802)" fill="#6E7079">glog</text>
<text dominant-baseline="central" text-anchor="middle" style="font-size:12px;font-family:Microsoft YaHei;" y="6" transform="translate(825.24 802)" fill="#6E7079">haclog</text>
<text dominant-baseline="central" text-anchor="middle" style="font-size:12px;font-family:Microsoft YaHei;" y="6" transform="translate(968.76 802)" fill="#6E7079">loguru</text>
<text dominant-baseline="central" text-anchor="middle" style="font-size:12px;font-family:Microsoft YaHei;" y="6" transform="translate(1112.28 802)" fill="#6E7079">nanolog</text>
<text dominant-baseline="central" text-anchor="middle" style="font-size:12px;font-family:Microsoft YaHei;" y="6" transform="translate(1255.8 802)" fill="#6E7079">quill_drop</text>
<text dominant-baseline="central" text-anchor="middle" style="font-size:12px;font-family:Microsoft YaHei;" y="6" transform="translate(1399.32 802)" fill="#6E7079">spdlog_async</text>
<text dominant-baseline="central" text-anchor="middle" style="font-size:12px;font-family:Microsoft YaHei;" y="6" transform="translate(1542.84 802)" fill="#6E7079">spdlog_sync</text>
<path d="M193.0344 794l25.272 0l0 -456.181l-25.272 0Z" fill="rgb(84,112,198)" class="zr0-cls-1"></path>
<path d="M336.5544 794l25.272 0l0 -46.242l-25.272 0Z" fill="#5470c6" class="zr0-cls-1"></path>
<path d="M480.0744 794l25.272 0l0 -9.0037l-25.272 0Z" fill="#5470c6" class="zr0-cls-1"></path>
<path d="M623.5944 794l25.272 0l0 -535.5753l-25.272 0Z" fill="#5470c6" class="zr0-cls-1"></path>
<path d="M767.1144 794l25.272 0l0 -194.51l-25.272 0Z" fill="#5470c6" class="zr0-cls-1"></path>
<path d="M910.6344 794l25.272 0l0 -288.3397l-25.272 0Z" fill="#5470c6" class="zr0-cls-1"></path>
<path d="M1054.1544 794l25.272 0l0 -19.6957l-25.272 0Z" fill="#5470c6" class="zr0-cls-1"></path>
<path d="M1197.6744 794l25.272 0l0 -6.3491l-25.272 0Z" fill="#5470c6" class="zr0-cls-1"></path>
<path d="M1341.1944 794l25.272 0l0 -74.134l-25.272 0Z" fill="#5470c6" class="zr0-cls-1"></path>
<path d="M1484.7144 794l25.272 0l0 -68.0173l-25.272 0Z" fill="#5470c6" class="zr0-cls-1"></path>
<path d="M223.3608 794l25.272 0l0 -541.0803l-25.272 0Z" fill="rgb(145,204,117)" class="zr0-cls-2"></path>
<path d="M366.8808 794l25.272 0l0 -45.508l-25.272 0Z" fill="#91cc75" class="zr0-cls-2"></path>
<path d="M510.4008 794l25.272 0l0 -4.6854l-25.272 0Z" fill="#91cc75" class="zr0-cls-2"></path>
<path d="M653.9208 794l25.272 0l0 -449.4527l-25.272 0Z" fill="#91cc75" class="zr0-cls-2"></path>
<path d="M797.4408 794l25.272 0l0 -193.776l-25.272 0Z" fill="#91cc75" class="zr0-cls-2"></path>
<path d="M940.9608 794l25.272 0l0 -399.4183l-25.272 0Z" fill="#91cc75" class="zr0-cls-2"></path>
<path d="M1084.4808 794l25.272 0l0 -27.892l-25.272 0Z" fill="#91cc75" class="zr0-cls-2"></path>
<path d="M1228.0008 794l25.272 0l0 -3.1195l-25.272 0Z" fill="#91cc75" class="zr0-cls-2"></path>
<path d="M1371.5208 794l25.272 0l0 -129.3063l-25.272 0Z" fill="#91cc75" class="zr0-cls-2"></path>
<path d="M1515.0408 794l25.272 0l0 -93.4627l-25.272 0Z" fill="#91cc75" class="zr0-cls-2"></path>
<path d="M253.6872 794l25.272 0l0 -512.9437l-25.272 0Z" fill="rgb(250,200,88)" class="zr0-cls-3"></path>
<path d="M397.2072 794l25.272 0l0 -47.343l-25.272 0Z" fill="#fac858" class="zr0-cls-3"></path>
<path d="M540.7272 794l25.272 0l0 -2.5078l-25.272 0Z" fill="#fac858" class="zr0-cls-3"></path>
<path d="M684.2472 794l25.272 0l0 -513.3107l-25.272 0Z" fill="#fac858" class="zr0-cls-3"></path>
<path d="M827.7672 794l25.272 0l0 -182.8883l-25.272 0Z" fill="#fac858" class="zr0-cls-3"></path>
<path d="M971.2872 794l25.272 0l0 -492.881l-25.272 0Z" fill="#fac858" class="zr0-cls-3"></path>
<path d="M1114.8072 794l25.272 0l0 -28.1367l-25.272 0Z" fill="#fac858" class="zr0-cls-3"></path>
<path d="M1258.3272 794l25.272 0l0 -1.6026l-25.272 0Z" fill="#fac858" class="zr0-cls-3"></path>
<path d="M1401.8472 794l25.272 0l0 -214.328l-25.272 0Z" fill="#fac858" class="zr0-cls-3"></path>
<path d="M1545.3672 794l25.272 0l0 -123.4343l-25.272 0Z" fill="#fac858" class="zr0-cls-3"></path>
<path d="M284.0136 794l25.272 0l0 -413.7313l-25.272 0Z" fill="#ee6666" class="zr0-cls-4"></path>
<path d="M427.5336 794l25.272 0l0 -49.6673l-25.272 0Z" fill="#ee6666" class="zr0-cls-4"></path>
<path d="M571.0536 794l25.272 0l0 -1.3824l-25.272 0Z" fill="#ee6666" class="zr0-cls-4"></path>
<path d="M714.5736 794l25.272 0l0 -655.3397l-25.272 0Z" fill="#ee6666" class="zr0-cls-4"></path>
<path d="M858.0936 794l25.272 0l0 -328.3427l-25.272 0Z" fill="#ee6666" class="zr0-cls-4"></path>
<path d="M1001.6136 794l25.272 0l0 -420.0927l-25.272 0Z" fill="#ee6666" class="zr0-cls-4"></path>
<path d="M1145.1336 794l25.272 0l0 -28.993l-25.272 0Z" fill="#ee6666" class="zr0-cls-4"></path>
<path d="M1288.6536 794l25.272 0l0 -1.0619l-25.272 0Z" fill="#ee6666" class="zr0-cls-4"></path>
<path d="M1432.1736 794l25.272 0l0 -229.008l-25.272 0Z" fill="#ee6666" class="zr0-cls-4"></path>
<path d="M1575.6936 794l25.272 0l0 -151.0817l-25.272 0Z" fill="#ee6666" class="zr0-cls-4"></path>
<path d="M-5 -5l188.1484 0l0 24l-188.1484 0Z" transform="translate(807.9258 5)" fill="rgb(0,0,0)" fill-opacity="0" stroke="#ccc" stroke-width="0" class="zr0-cls-0"></path>
<path d="M3.5 0L21.5 0A3.5 3.5 0 0 1 25 3.5L25 10.5A3.5 3.5 0 0 1 21.5 14L3.5 14A3.5 3.5 0 0 1 0 10.5L0 3.5A3.5 3.5 0 0 1 3.5 0" transform="translate(807.9258 5)" fill="#5470c6" class="zr0-cls-0"></path>
<text dominant-baseline="central" text-anchor="start" style="font-size:12px;font-family:Microsoft YaHei;" x="30" y="7" transform="translate(807.9258 5)" fill="#333">1</text>
<path d="M0 0l37.0371 0l0 14l-37.0371 0Z" transform="translate(807.9258 5)" fill="none" class="zr0-cls-5"></path>
<path d="M3.5 0L21.5 0A3.5 3.5 0 0 1 25 3.5L25 10.5A3.5 3.5 0 0 1 21.5 14L3.5 14A3.5 3.5 0 0 1 0 10.5L0 3.5A3.5 3.5 0 0 1 3.5 0" transform="translate(854.9629 5)" fill="#91cc75" class="zr0-cls-0"></path>
<text dominant-baseline="central" text-anchor="start" style="font-size:12px;font-family:Microsoft YaHei;" x="30" y="7" transform="translate(854.9629 5)" fill="#333">2</text>
<path d="M0 0l37.0371 0l0 14l-37.0371 0Z" transform="translate(854.9629 5)" fill="none" class="zr0-cls-5"></path>
<path d="M3.5 0L21.5 0A3.5 3.5 0 0 1 25 3.5L25 10.5A3.5 3.5 0 0 1 21.5 14L3.5 14A3.5 3.5 0 0 1 0 10.5L0 3.5A3.5 3.5 0 0 1 3.5 0" transform="translate(902 5)" fill="#fac858" class="zr0-cls-0"></path>
<text dominant-baseline="central" text-anchor="start" style="font-size:12px;font-family:Microsoft YaHei;" x="30" y="7" transform="translate(902 5)" fill="#333">4</text>
<path d="M0 0l37.0371 0l0 14l-37.0371 0Z" transform="translate(902 5)" fill="none" class="zr0-cls-5"></path>
<path d="M3.5 0L21.5 0A3.5 3.5 0 0 1 25 3.5L25 10.5A3.5 3.5 0 0 1 21.5 14L3.5 14A3.5 3.5 0 0 1 0 10.5L0 3.5A3.5 3.5 0 0 1 3.5 0" transform="translate(949.0371 5)" fill="#ee6666" class="zr0-cls-0"></path>
<text dominant-baseline="central" text-anchor="start" style="font-size:12px;font-family:Microsoft YaHei;" x="30" y="7" transform="translate(949.0371 5)" fill="#333">8</text>
<path d="M0 0l37.0371 0l0 14l-37.0371 0Z" transform="translate(949.0371 5)" fill="none" class="zr0-cls-5"></path>
<style ><![CDATA[
.zr0-cls-0:hover {
pointer-events:none;
}
.zr0-cls-1:hover {
cursor:pointer;
fill:rgba(92,123,217,1);
}
.zr0-cls-2:hover {
cursor:pointer;
fill:rgba(159,224,128,1);
}
.zr0-cls-3:hover {
cursor:pointer;
fill:rgba(255,220,96,1);
}
.zr0-cls-4:hover {
cursor:pointer;
fill:rgba(255,112,112,1);
}
.zr0-cls-5:hover {
cursor:pointer;
fill:rgba(0,0,0,0);
}

]]>

</style>
</svg>