<svg width="1794" height="864" xmlns="http://www.w3.org/2000/svg" xmlns:xlink="http://www.w3.org/1999/xlink" version="1.1" baseProfile="full" viewBox="0 0 1794 864">
<rect width="1794" height="864" x="0" y="0" fill="none"></rect>
<path d="M179.4 794.5L1614.6 794.5" fill="none" stroke="#E0E6F1" class="zr0-cls-13"></path>
<path d="M179.4 689.5L1614.6 689.5" fill="none" stroke="#E0E6F1" class="zr0-cls-13"></path>
<path d="M179.4 584.5L1614.6 584.5" fill="none" stroke="#E0E6F1" class="zr0-cls-13"></path>
<path d="M179.4 479.5L1614.6 479.5" fill="none" stroke="#E0E6F1" class="zr0-cls-13"></path>
<path d="M179.4 374.5L1614.6 374.5" fill="none" stroke="#E0E6F1" class="zr0-cls-13"></path>
<path d="M179.4 269.5L1614.6 269.5" fill="none" stroke="#E0E6F1" class="zr0-cls-13"></path>
<path d="M179.4 165.5L1614.6 165.5" fill="none" stroke="#E0E6F1" class="zr0-cls-13"></path>
<path d="M179.4 60.5L1614.6 60.5" fill="none" stroke="#E0E6F1" class="zr0-cls-13"></path>
<path d="M179.4 794.5L1614.6 794.5" fill="none" stroke="#6E7079" stroke-linecap="round" class="zr0-cls-13"></path>
<path d="M179.5 794L179.5 799" fill="none" stroke="#6E7079" class="zr0-cls-13"></path>
<path d="M310.5 794L310.5 799" fill="none" stroke="#6E7079" class="zr0-cls-13"></path>
<path d="M440.5 794L440.5 799" fill="none" stroke="#6E7079" class="zr0-cls-13"></path>
<path d="M571.5 794L571.5 799" fill="none" stroke="#6E7079" class="zr0-cls-13"></path>
<path d="M701.5 794L701.5 799" fill="none" stroke="#6E7079" class="zr0-cls-13"></path>
<path d="M832.5 794L832.5 799" fill="none" stroke="#6E7079" class="zr0-cls-13"></path>
<path d="M962.5 794L962.5 799" fill="none" stroke="#6E7079" class="zr0-cls-13"></path>
<path d="M1092.5 794L1092.5 799" fill="none" stroke="#6E7079" class="zr0-cls-13"></path>
<path d="M1223.5 794L1223.5 799" fill="none" stroke="#6E7079" class="zr0-cls-13"></path>
<path d="M1353.5 794L1353.5 799" fill="none" stroke="#6E7079" class="zr0-cls-13"></path>
<path d="M1484.5 794L1484.5 799" fill="none" stroke="#6E7079" class="zr0-cls-13"></path>
<path d="M1614.5 794L1614.5 799" fill="none" stroke="#6E7079" class="zr0-cls-13"></path>
<text dominant-baseline="central" text-anchor="end" style="font-size:12px;font-family:Microsoft YaHei;" transform="translate(171.4 794)" fill="#6E7079">0</text>
<text dominant-baseline="central" text-anchor="end" style="font-size:12px;font-family:Microsoft YaHei;" transform="translate(171.4 689.1429)" fill="#6E7079">1,000</text>
<text dominant-baseline="central" text-anchor="end" style="font-size:12px;font-family:Microsoft YaHei;" transform="translate(171.4 584.2857)" fill="#6E7079">2,000</text>
<text dominant-baseline="central" text-anchor="end" style="font-size:12px;font-family:Microsoft YaHei;" transform="translate(171.4 479.4286)" fill="#6E7079">3,000</text>
<text dominant-baseline="central" text-anchor="end" style="font-size:12px;font-family:Microsoft YaHei;" transform="translate(171.4 374.5714)" fill="#6E7079">4,000</text>
<text dominant-baseline="central" text-anchor="end" style="font-size:12px;font-family:Microsoft YaHei;" transform="translate(171.4 269.7143)" fill="#6E7079">5,000</text>
<text dominant-baseline="central" text-anchor="end" style="font-size:12px;font-family:Microsoft YaHei;" transform="translate(171.4 164.8571)" fill="#6E7079">6,000</text>
<text dominant-baseline="central" text-anchor="end" style="font-size:12px;font-family:Microsoft YaHei;" transform="translate(171.4 60)" fill="#6E7079">7,000</text>
<text dominant-baseline="central" text-anchor="middle" style="font-size:12px;font-family:Microsoft YaHei;" y="6" transform="translate(244.6364 802)" fill="#6E7079">easyloggingpp</text>
<text dominant-baseline="central" text-anchor="middle" style="font-size:12px;font-family:Microsoft YaHei;" y="6" transform="translate(375.1091 802)" fill="#6E7079">fmtlog</text>
<text dominant-baseline="central" text-anchor="middle" style="font-size:12px;font-family:Microsoft YaHei;" y="6" transform="translate(505.5818 802)" fill="#6E7079">glog</text>
<text dominant-baseline="central" text-anchor="middle" style="font-size:12px;font-family:Microsoft YaHei;" y="6" transform="translate(636.0545 802)" fill="#6E7079">haclog</text>
<text dominant-baseline="central" text-anchor="middle" style="font-size:12px;font-family:Microsoft YaHei;" y="6" transform="translate(766.5273 802)" fill="#6E7079">loguru</text>
<text dominant-baseline="central" text-anchor="middle" style="font-size:12px;font-family:Microsoft YaHei;" y="6" transform="translate(897 802)" fill="#6E7079">nanolog</text>
<text dominant-baseline="central" text-anchor="middle" style="font-size:12px;font-family:Microsoft YaHei;" y="6" transform="translate(1027.4727 802)" fill="#6E7079">quill_blocking</text>
<text dominant-baseline="central" text-anchor="middle" style="font-size:12px;font-family:Microsoft YaHei;" y="6" transform="translate(1157.9455 802)" fill="#6E7079">quill_dropping</text>
<text dominant-baseline="central" text-anchor="middle" style="font-size:12px;font-family:Microsoft YaHei;" y="6" transform="translate(1288.4182 802)" fill="#6E7079">reckless</text>
<text dominant-baseline="central" text-anchor="middle" style="font-size:12px;font-family:Microsoft YaHei;" y="6" transform="translate(1418.8909 802)" fill="#6E7079">spdlog_async</text>
<text dominant-baseline="central" text-anchor="middle" style="font-size:12px;font-family:Microsoft YaHei;" y="6" transform="translate(1549.3636 802)" fill="#6E7079">spdlog_sync</text>
<path d="M189.1855 794l19.121 0l0 -388.6006l-19.121 0Z" fill="#5470c6" class="zr0-cls-14"></path>
<path d="M319.6582 794l19.121 0l0 -7.4344l-19.121 0Z" fill="#5470c6" class="zr0-cls-14"></path>
<path d="M450.1309 794l19.121 0l0 -452.0391l-19.121 0Z" fill="rgb(84,112,198)" class="zr0-cls-14"></path>
<path d="M580.6036 794l19.121 0l0 -14.3654l-19.121 0Z" fill="#5470c6" class="zr0-cls-14"></path>
<path d="M711.0764 794l19.121 0l0 -276.4034l-19.121 0Z" fill="#5470c6" class="zr0-cls-14"></path>
<path d="M841.5491 794l19.121 0l0 -6.5011l-19.121 0Z" fill="#5470c6" class="zr0-cls-14"></path>
<path d="M1363.44 794l19.121 0l0 -63.9629l-19.121 0Z" fill="#5470c6" class="zr0-cls-14"></path>
<path d="M1493.9127 794l19.121 0l0 -60.7123l-19.121 0Z" fill="#5470c6" class="zr0-cls-14"></path>
<path d="M1232.9673 794l19.121 0l0 -52.3237l-19.121 0Z" fill="#5470c6" class="zr0-cls-14"></path>
<path d="M972.0218 794l19.121 0l0 -7.8433l-19.121 0Z" fill="#5470c6" class="zr0-cls-14"></path>
<path d="M1102.4945 794l19.121 0l0 -6.1971l-19.121 0Z" fill="#5470c6" class="zr0-cls-14"></path>
<path d="M212.1307 794l19.121 0l0 -334.3894l-19.121 0Z" fill="#91cc75" class="zr0-cls-15"></path>
<path d="M342.6034 794l19.121 0l0 -2.7053l-19.121 0Z" fill="#91cc75" class="zr0-cls-15"></path>
<path d="M473.0761 794l19.121 0l0 -432.6406l-19.121 0Z" fill="rgb(145,204,117)" class="zr0-cls-15"></path>
<path d="M603.5488 794l19.121 0l0 -5.2953l-19.121 0Z" fill="#91cc75" class="zr0-cls-15"></path>
<path d="M734.0216 794l19.121 0l0 -407.37l-19.121 0Z" fill="#91cc75" class="zr0-cls-15"></path>
<path d="M864.4943 794l19.121 0l0 -2.0762l-19.121 0Z" fill="#91cc75" class="zr0-cls-15"></path>
<path d="M1386.3852 794l19.121 0l0 -141.4523l-19.121 0Z" fill="#91cc75" class="zr0-cls-15"></path>
<path d="M1516.8579 794l19.121 0l0 -95.8394l-19.121 0Z" fill="#91cc75" class="zr0-cls-15"></path>
<path d="M1255.9125 794l19.121 0l0 -45.8226l-19.121 0Z" fill="#91cc75" class="zr0-cls-15"></path>
<path d="M994.967 794l19.121 0l0 -2.9045l-19.121 0Z" fill="#91cc75" class="zr0-cls-15"></path>
<path d="M1125.4397 794l19.121 0l0 -2.7158l-19.121 0Z" fill="#91cc75" class="zr0-cls-15"></path>
<path d="M235.0759 794l19.121 0l0 -278.92l-19.121 0Z" fill="#fac858" class="zr0-cls-16"></path>
<path d="M365.5486 794l19.121 0l0 -1.3841l-19.121 0Z" fill="#fac858" class="zr0-cls-16"></path>
<path d="M496.0213 794l19.121 0l0 -540.5386l-19.121 0Z" fill="rgb(250,200,88)" class="zr0-cls-16"></path>
<path d="M626.494 794l19.121 0l0 -3.4813l-19.121 0Z" fill="#fac858" class="zr0-cls-16"></path>
<path d="M756.9668 794l19.121 0l0 -313.7326l-19.121 0Z" fill="#fac858" class="zr0-cls-16"></path>
<path d="M887.4395 794l19.121 0l0 -1.2897l-19.121 0Z" fill="#fac858" class="zr0-cls-16"></path>
<path d="M1409.3304 794l19.121 0l0 -173.3289l-19.121 0Z" fill="#fac858" class="zr0-cls-16"></path>
<path d="M1539.8031 794l19.121 0l0 -107.164l-19.121 0Z" fill="#fac858" class="zr0-cls-16"></path>
<path d="M1278.8577 794l19.121 0l0 -48.0246l-19.121 0Z" fill="#fac858" class="zr0-cls-16"></path>
<path d="M1017.9122 794l19.121 0l0 -1.7406l-19.121 0Z" fill="#fac858" class="zr0-cls-16"></path>
<path d="M1148.385 794l19.121 0l0 -1.7197l-19.121 0Z" fill="#fac858" class="zr0-cls-16"></path>
<path d="M258.0211 794l19.121 0l0 -298.6331l-19.121 0Z" fill="#ee6666" class="zr0-cls-17"></path>
<path d="M388.4938 794l19.121 0l0 -0.8777l-19.121 0Z" fill="#ee6666" class="zr0-cls-17"></path>
<path d="M518.9665 794l19.121 0l0 -651.3726l-19.121 0Z" fill="rgb(238,102,102)" class="zr0-cls-17"></path>
<path d="M649.4392 794l19.121 0l0 -3.3974l-19.121 0Z" fill="#ee6666" class="zr0-cls-17"></path>
<path d="M779.912 794l19.121 0l0 -579.0211l-19.121 0Z" fill="#ee6666" class="zr0-cls-17"></path>
<path d="M910.3847 794l19.121 0l0 -1.0192l-19.121 0Z" fill="#ee6666" class="zr0-cls-17"></path>
<path d="M1432.2756 794l19.121 0l0 -198.2849l-19.121 0Z" fill="#ee6666" class="zr0-cls-17"></path>
<path d="M1562.7483 794l19.121 0l0 -124.3606l-19.121 0Z" fill="#ee6666" class="zr0-cls-17"></path>
<path d="M1301.8029 794l19.121 0l0 -48.0246l-19.121 0Z" fill="#ee6666" class="zr0-cls-17"></path>
<path d="M1040.8574 794l19.121 0l0 -1.1954l-19.121 0Z" fill="#ee6666" class="zr0-cls-17"></path>
<path d="M1171.3302 794l19.121 0l0 -1.1744l-19.121 0Z" fill="#ee6666" class="zr0-cls-17"></path>
<path d="M280.9663 794l19.121 0l0 -287.4134l-19.121 0Z" fill="#73c0de" class="zr0-cls-18"></path>
<path d="M411.439 794l19.121 0l0 -0.5924l-19.121 0Z" fill="#73c0de" class="zr0-cls-18"></path>
<path d="M541.9117 794l19.121 0l0 -648.6463l-19.121 0Z" fill="rgb(115,192,222)" class="zr0-cls-18"></path>
<path d="M672.3845 794l19.121 0l0 -1.7721l-19.121 0Z" fill="#73c0de" class="zr0-cls-18"></path>
<path d="M802.8572 794l19.121 0l0 -407.5797l-19.121 0Z" fill="#73c0de" class="zr0-cls-18"></path>
<path d="M933.3299 794l19.121 0l0 -0.6879l-19.121 0Z" fill="#73c0de" class="zr0-cls-18"></path>
<path d="M1324.7481 794l19.121 0l0 -40.9991l-19.121 0Z" fill="#73c0de" class="zr0-cls-18"></path>
<path d="M1455.2208 794l19.121 0l0 -185.8069l-19.121 0Z" fill="#73c0de" class="zr0-cls-18"></path>
<path d="M1585.6935 794l19.121 0l0 -122.9974l-19.121 0Z" fill="#73c0de" class="zr0-cls-18"></path>
<path d="M1063.8026 794l19.121 0l0 -0.6491l-19.121 0Z" fill="#73c0de" class="zr0-cls-18"></path>
<path d="M1194.2754 794l19.121 0l0 -0.6218l-19.121 0Z" fill="#73c0de" class="zr0-cls-18"></path>
<path d="M-5 -5l249.2598 0l0 24l-249.2598 0Z" transform="translate(777.3701 5)" fill="rgb(0,0,0)" fill-opacity="0" stroke="#ccc" stroke-width="0" class="zr0-cls-13"></path>
<path d="M3.5 0L21.5 0A3.5 3.5 0 0 1 25 3.5L25 10.5A3.5 3.5 0 0 1 21.5 14L3.5 14A3.5 3.5 0 0 1 0 10.5L0 3.5A3.5 3.5 0 0 1 3.5 0" transform="translate(777.3701 5)" fill="#5470c6" class="zr0-cls-13"></path>
<text dominant-baseline="central" text-anchor="start" style="font-size:12px;font-family:Microsoft YaHei;" x="30" y="7" transform="translate(777.3701 5)" fill="#333">1</text>
<path d="M0 0l37.0371 0l0 14l-37.0371 0Z" transform="translate(777.3701 5)" fill="none" class="zr0-cls-19"></path>
<path d="M3.5 0L21.5 0A3.5 3.5 0 0 1 25 3.5L25 10.5A3.5 3.5 0 0 1 21.5 14L3.5 14A3.5 3.5 0 0 1 0 10.5L0 3.5A3.5 3.5 0 0 1 3.5 0" transform="translate(824.4072 5)" fill="#91cc75" class="zr0-cls-13"></path>
<text dominant-baseline="central" text-anchor="start" style="font-size:12px;font-family:Microsoft YaHei;" x="30" y="7" transform="translate(824.4072 5)" fill="#333">3</text>
<path d="M0 0l37.0371 0l0 14l-37.0371 0Z" transform="translate(824.4072 5)" fill="none" class="zr0-cls-19"></path>
<path d="M3.5 0L21.5 0A3.5 3.5 0 0 1 25 3.5L25 10.5A3.5 3.5 0 0 1 21.5 14L3.5 14A3.5 3.5 0 0 1 0 10.5L0 3.5A3.5 3.5 0 0 1 3.5 0" transform="translate(871.4443 5)" fill="#fac858" class="zr0-cls-13"></path>
<text dominant-baseline="central" text-anchor="start" style="font-size:12px;font-family:Microsoft YaHei;" x="30" y="7" transform="translate(871.4443 5)" fill="#333">6</text>
<path d="M0 0l37.0371 0l0 14l-37.0371 0Z" transform="translate(871.4443 5)" fill="none" class="zr0-cls-19"></path>
<path d="M3.5 0L21.5 0A3.5 3.5 0 0 1 25 3.5L25 10.5A3.5 3.5 0 0 1 21.5 14L3.5 14A3.5 3.5 0 0 1 0 10.5L0 3.5A3.5 3.5 0 0 1 3.5 0" transform="translate(918.4814 5)" fill="#ee6666" class="zr0-cls-13"></path>
<text dominant-baseline="central" text-anchor="start" style="font-size:12px;font-family:Microsoft YaHei;" x="30" y="7" transform="translate(918.4814 5)" fill="#333">12</text>
<path d="M0 0l44.0742 0l0 14l-44.0742 0Z" transform="translate(918.4814 5)" fill="none" class="zr0-cls-19"></path>
<path d="M3.5 0L21.5 0A3.5 3.5 0 0 1 25 3.5L25 10.5A3.5 3.5 0 0 1 21.5 14L3.5 14A3.5 3.5 0 0 1 0 10.5L0 3.5A3.5 3.5 0 0 1 3.5 0" transform="translate(972.5557 5)" fill="#73c0de" class="zr0-cls-13"></path>
<text dominant-baseline="central" text-anchor="start" style="font-size:12px;font-family:Microsoft YaHei;" x="30" y="7" transform="translate(972.5557 5)" fill="#333">24</text>
<path d="M0 0l44.0742 0l0 14l-44.0742 0Z" transform="translate(972.5557 5)" fill="none" class="zr0-cls-19"></path>
<style ><![CDATA[
.zr0-cls-13:hover {
pointer-events:none;
}
.zr0-cls-14:hover {
cursor:pointer;
fill:rgba(92,123,217,1);
}
.zr0-cls-15:hover {
cursor:pointer;
fill:rgba(159,224,128,1);
}
.zr0-cls-16:hover {
cursor:pointer;
fill:rgba(255,220,96,1);
}
.zr0-cls-17:hover {
cursor:pointer;
fill:rgba(255,112,112,1);
}
.zr0-cls-18:hover {
cursor:pointer;
fill:rgba(126,211,244,1);
}
.zr0-cls-19:hover {
cursor:pointer;
fill:rgba(0,0,0,0);
}

]]>

</style>
</svg>