<svg width="1794" height="864" xmlns="http://www.w3.org/2000/svg" xmlns:xlink="http://www.w3.org/1999/xlink" version="1.1" baseProfile="full" viewBox="0 0 1794 864">
<rect width="1794" height="864" x="0" y="0" fill="none"></rect>
<path d="M179.4 794.5L1614.6 794.5" fill="none" stroke="#E0E6F1" class="zr0-cls-0"></path>
<path d="M179.4 671.5L1614.6 671.5" fill="none" stroke="#E0E6F1" class="zr0-cls-0"></path>
<path d="M179.4 549.5L1614.6 549.5" fill="none" stroke="#E0E6F1" class="zr0-cls-0"></path>
<path d="M179.4 427.5L1614.6 427.5" fill="none" stroke="#E0E6F1" class="zr0-cls-0"></path>
<path d="M179.4 304.5L1614.6 304.5" fill="none" stroke="#E0E6F1" class="zr0-cls-0"></path>
<path d="M179.4 182.5L1614.6 182.5" fill="none" stroke="#E0E6F1" class="zr0-cls-0"></path>
<path d="M179.4 60.5L1614.6 60.5" fill="none" stroke="#E0E6F1" class="zr0-cls-0"></path>
<path d="M179.4 794.5L1614.6 794.5" fill="none" stroke="#6E7079" stroke-linecap="round" class="zr0-cls-0"></path>
<path d="M179.5 794L179.5 799" fill="none" stroke="#6E7079" class="zr0-cls-0"></path>
<path d="M339.5 794L339.5 799" fill="none" stroke="#6E7079" class="zr0-cls-0"></path>
<path d="M498.5 794L498.5 799" fill="none" stroke="#6E7079" class="zr0-cls-0"></path>
<path d="M658.5 794L658.5 799" fill="none" stroke="#6E7079" class="zr0-cls-0"></path>
<path d="M817.5 794L817.5 799" fill="none" stroke="#6E7079" class="zr0-cls-0"></path>
<path d="M976.5 794L976.5 799" fill="none" stroke="#6E7079" class="zr0-cls-0"></path>
<path d="M1136.5 794L1136.5 799" fill="none" stroke="#6E7079" class="zr0-cls-0"></path>
<path d="M1295.5 794L1295.5 799" fill="none" stroke="#6E7079" class="zr0-cls-0"></path>
<path d="M1455.5 794L1455.5 799" fill="none" stroke="#6E7079" class="zr0-cls-0"></path>
<path d="M1614.5 794L1614.5 799" fill="none" stroke="#6E7079" class="zr0-cls-0"></path>
<text dominant-baseline="central" text-anchor="end" style="font-size:12px;font-family:Microsoft YaHei;" transform="translate(171.4 794)" fill="#6E7079">0</text>
<text dominant-baseline="central" text-anchor="end" style="font-size:12px;font-family:Microsoft YaHei;" transform="translate(171.4 671.6667)" fill="#6E7079">1,000</text>
<text dominant-baseline="central" text-anchor="end" style="font-size:12px;font-family:Microsoft YaHei;" transform="translate(171.4 549.3333)" fill="#6E7079">2,000</text>
<text dominant-baseline="central" text-anchor="end" style="font-size:12px;font-family:Microsoft YaHei;" transform="translate(171.4 427)" fill="#6E7079">3,000</text>
<text dominant-baseline="central" text-anchor="end" style="font-size:12px;font-family:Microsoft YaHei;" transform="translate(171.4 304.6667)" fill="#6E7079">4,000</text>
<text dominant-baseline="central" text-anchor="end" style="font-size:12px;font-family:Microsoft YaHei;" transform="translate(171.4 182.3333)" fill="#6E7079">5,000</text>
<text dominant-baseline="central" text-anchor="end" style="font-size:12px;font-family:Microsoft YaHei;" transform="translate(171.4 60)" fill="#6E7079">6,000</text>
<text dominant-baseline="central" text-anchor="middle" style="font-size:12px;font-family:Microsoft YaHei;" y="6" transform="translate(259.1333 802)" fill="#6E7079">easyloggingpp</text>
<text dominant-baseline="central" text-anchor="middle" style="font-size:12px;font-family:Microsoft YaHei;" y="6" transform="translate(418.6 802)" fill="#6E7079">fmtlog</text>
<text dominant-baseline="central" text-anchor="middle" style="font-size:12px;font-family:Microsoft YaHei;" y="6" transform="translate(578.0667 802)" fill="#6E7079">glog</text>
<text dominant-baseline="central" text-anchor="middle" style="font-size:12px;font-family:Microsoft YaHei;" y="6" transform="translate(737.5333 802)" fill="#6E7079">haclog</text>
<text dominant-baseline="central" text-anchor="middle" style="font-size:12px;font-family:Microsoft YaHei;" y="6" transform="translate(897 802)" fill="#6E7079">loguru</text>
<text dominant-baseline="central" text-anchor="middle" style="font-size:12px;font-family:Microsoft YaHei;" y="6" transform="translate(1056.4667 802)" fill="#6E7079">nanolog</text>
<text dominant-baseline="central" text-anchor="middle" style="font-size:12px;font-family:Microsoft YaHei;" y="6" transform="translate(1215.9333 802)" fill="#6E7079">quill_dropping</text>
<text dominant-baseline="central" text-anchor="middle" style="font-size:12px;font-family:Microsoft YaHei;" y="6" transform="translate(1375.4 802)" fill="#6E7079">spdlog_async</text>
<text dominant-baseline="central" text-anchor="middle" style="font-size:12px;font-family:Microsoft YaHei;" y="6" transform="translate(1534.8667 802)" fill="#6E7079">spdlog_sync</text>
<path d="M194.5493 794l28.08 0l0 -436.8523l-28.08 0Z" fill="#5470c6" class="zr0-cls-1"></path>
<path d="M354.016 794l28.08 0l0 -7.9761l-28.08 0Z" fill="#5470c6" class="zr0-cls-1"></path>
<path d="M513.4827 794l28.08 0l0 -514.2893l-28.08 0Z" fill="#5470c6" class="zr0-cls-1"></path>
<path d="M672.9493 794l28.08 0l0 -197.3237l-28.08 0Z" fill="#5470c6" class="zr0-cls-1"></path>
<path d="M832.416 794l28.08 0l0 -286.26l-28.08 0Z" fill="#5470c6" class="zr0-cls-1"></path>
<path d="M991.8827 794l28.08 0l0 -21.1637l-28.08 0Z" fill="#5470c6" class="zr0-cls-1"></path>
<path d="M1151.3493 794l28.08 0l0 -6.4714l-28.08 0Z" fill="#5470c6" class="zr0-cls-1"></path>
<path d="M1310.816 794l28.08 0l0 -74.868l-28.08 0Z" fill="#5470c6" class="zr0-cls-1"></path>
<path d="M1470.2827 794l28.08 0l0 -68.996l-28.08 0Z" fill="#5470c6" class="zr0-cls-1"></path>
<path d="M228.2453 794l28.08 0l0 -522.7303l-28.08 0Z" fill="#91cc75" class="zr0-cls-2"></path>
<path d="M387.712 794l28.08 0l0 -3.9758l-28.08 0Z" fill="#91cc75" class="zr0-cls-2"></path>
<path d="M547.1787 794l28.08 0l0 -495.083l-28.08 0Z" fill="#91cc75" class="zr0-cls-2"></path>
<path d="M706.6453 794l28.08 0l0 -194.9993l-28.08 0Z" fill="#91cc75" class="zr0-cls-2"></path>
<path d="M866.112 794l28.08 0l0 -398.3173l-28.08 0Z" fill="#91cc75" class="zr0-cls-2"></path>
<path d="M1025.5787 794l28.08 0l0 -28.7483l-28.08 0Z" fill="#91cc75" class="zr0-cls-2"></path>
<path d="M1185.0453 794l28.08 0l0 -3.2051l-28.08 0Z" fill="#91cc75" class="zr0-cls-2"></path>
<path d="M1344.512 794l28.08 0l0 -128.2053l-28.08 0Z" fill="#91cc75" class="zr0-cls-2"></path>
<path d="M1503.9787 794l28.08 0l0 -102.026l-28.08 0Z" fill="#91cc75" class="zr0-cls-2"></path>
<path d="M261.9413 794l28.08 0l0 -424.252l-28.08 0Z" fill="#fac858" class="zr0-cls-3"></path>
<path d="M421.408 794l28.08 0l0 -1.994l-28.08 0Z" fill="#fac858" class="zr0-cls-3"></path>
<path d="M580.8747 794l28.08 0l0 -505.6037l-28.08 0Z" fill="#fac858" class="zr0-cls-3"></path>
<path d="M740.3413 794l28.08 0l0 -189.739l-28.08 0Z" fill="#fac858" class="zr0-cls-3"></path>
<path d="M899.808 794l28.08 0l0 -460.4627l-28.08 0Z" fill="#fac858" class="zr0-cls-3"></path>
<path d="M1059.2747 794l28.08 0l0 -30.461l-28.08 0Z" fill="#fac858" class="zr0-cls-3"></path>
<path d="M1218.7413 794l28.08 0l0 -1.6148l-28.08 0Z" fill="#fac858" class="zr0-cls-3"></path>
<path d="M1378.208 794l28.08 0l0 -179.3407l-28.08 0Z" fill="#fac858" class="zr0-cls-3"></path>
<path d="M1537.6747 794l28.08 0l0 -118.0517l-28.08 0Z" fill="#fac858" class="zr0-cls-3"></path>
<path d="M295.6373 794l28.08 0l0 -448.841l-28.08 0Z" fill="rgb(238,102,102)" class="zr0-cls-4"></path>
<path d="M455.104 794l28.08 0l0 -1.0998l-28.08 0Z" fill="#ee6666" class="zr0-cls-4"></path>
<path d="M614.5707 794l28.08 0l0 -705.007l-28.08 0Z" fill="#ee6666" class="zr0-cls-4"></path>
<path d="M774.0373 794l28.08 0l0 -322.1037l-28.08 0Z" fill="#ee6666" class="zr0-cls-4"></path>
<path d="M933.504 794l28.08 0l0 -391.8337l-28.08 0Z" fill="#ee6666" class="zr0-cls-4"></path>
<path d="M1092.9707 794l28.08 0l0 -28.259l-28.08 0Z" fill="#ee6666" class="zr0-cls-4"></path>
<path d="M1252.4373 794l28.08 0l0 -1.0227l-28.08 0Z" fill="#ee6666" class="zr0-cls-4"></path>
<path d="M1411.904 794l28.08 0l0 -243.8103l-28.08 0Z" fill="#ee6666" class="zr0-cls-4"></path>
<path d="M1571.3707 794l28.08 0l0 -139.9493l-28.08 0Z" fill="#ee6666" class="zr0-cls-4"></path>
<path d="M-5 -5l188.1484 0l0 24l-188.1484 0Z" transform="translate(807.9258 5)" fill="rgb(0,0,0)" fill-opacity="0" stroke="#ccc" stroke-width="0" class="zr0-cls-0"></path>
<path d="M3.5 0L21.5 0A3.5 3.5 0 0 1 25 3.5L25 10.5A3.5 3.5 0 0 1 21.5 14L3.5 14A3.5 3.5 0 0 1 0 10.5L0 3.5A3.5 3.5 0 0 1 3.5 0" transform="translate(807.9258 5)" fill="#5470c6" class="zr0-cls-0"></path>
<text dominant-baseline="central" text-anchor="start" style="font-size:12px;font-family:Microsoft YaHei;" x="30" y="7" transform="translate(807.9258 5)" fill="#333">1</text>
<path d="M0 0l37.0371 0l0 14l-37.0371 0Z" transform="translate(807.9258 5)" fill="none" class="zr0-cls-5"></path>
<path d="M3.5 0L21.5 0A3.5 3.5 0 0 1 25 3.5L25 10.5A3.5 3.5 0 0 1 21.5 14L3.5 14A3.5 3.5 0 0 1 0 10.5L0 3.5A3.5 3.5 0 0 1 3.5 0" transform="translate(854.9629 5)" fill="#91cc75" class="zr0-cls-0"></path>
<text dominant-baseline="central" text-anchor="start" style="font-size:12px;font-family:Microsoft YaHei;" x="30" y="7" transform="translate(854.9629 5)" fill="#333">2</text>
<path d="M0 0l37.0371 0l0 14l-37.0371 0Z" transform="translate(854.9629 5)" fill="none" class="zr0-cls-5"></path>
<path d="M3.5 0L21.5 0A3.5 3.5 0 0 1 25 3.5L25 10.5A3.5 3.5 0 0 1 21.5 14L3.5 14A3.5 3.5 0 0 1 0 10.5L0 3.5A3.5 3.5 0 0 1 3.5 0" transform="translate(902 5)" fill="#fac858" class="zr0-cls-0"></path>
<text dominant-baseline="central" text-anchor="start" style="font-size:12px;font-family:Microsoft YaHei;" x="30" y="7" transform="translate(902 5)" fill="#333">4</text>
<path d="M0 0l37.0371 0l0 14l-37.0371 0Z" transform="translate(902 5)" fill="none" class="zr0-cls-5"></path>
<path d="M3.5 0L21.5 0A3.5 3.5 0 0 1 25 3.5L25 10.5A3.5 3.5 0 0 1 21.5 14L3.5 14A3.5 3.5 0 0 1 0 10.5L0 3.5A3.5 3.5 0 0 1 3.5 0" transform="translate(949.0371 5)" fill="#ee6666" class="zr0-cls-0"></path>
<text dominant-baseline="central" text-anchor="start" style="font-size:12px;font-family:Microsoft YaHei;" x="30" y="7" transform="translate(949.0371 5)" fill="#333">8</text>
<path d="M0 0l37.0371 0l0 14l-37.0371 0Z" transform="translate(949.0371 5)" fill="none" class="zr0-cls-5"></path>
<style ><![CDATA[
.zr0-cls-0:hover {
pointer-events:none;
}
.zr0-cls-1:hover {
cursor:pointer;
fill:rgba(92,123,217,1);
}
.zr0-cls-2:hover {
cursor:pointer;
fill:rgba(159,224,128,1);
}
.zr0-cls-3:hover {
cursor:pointer;
fill:rgba(255,220,96,1);
}
.zr0-cls-4:hover {
cursor:pointer;
fill:rgba(255,112,112,1);
}
.zr0-cls-5:hover {
cursor:pointer;
fill:rgba(0,0,0,0);
}

]]>

</style>
</svg>