<svg width="1794" height="842" xmlns="http://www.w3.org/2000/svg" xmlns:xlink="http://www.w3.org/1999/xlink" version="1.1" baseProfile="full" viewBox="0 0 1794 842">
<rect width="1794" height="842" x="0" y="0" id="0" fill="none"></rect>
<path d="M179.4 772.5L1614.6 772.5" fill="none" stroke="#E0E6F1"></path>
<path d="M179.4 629.5L1614.6 629.5" fill="none" stroke="#E0E6F1"></path>
<path d="M179.4 487.5L1614.6 487.5" fill="none" stroke="#E0E6F1"></path>
<path d="M179.4 345.5L1614.6 345.5" fill="none" stroke="#E0E6F1"></path>
<path d="M179.4 202.5L1614.6 202.5" fill="none" stroke="#E0E6F1"></path>
<path d="M179.4 60.5L1614.6 60.5" fill="none" stroke="#E0E6F1"></path>
<path d="M179.4 772.5L1614.6 772.5" fill="none" stroke="#6E7079" stroke-linecap="round"></path>
<path d="M179.5 772L179.5 777" fill="none" stroke="#6E7079"></path>
<path d="M310.5 772L310.5 777" fill="none" stroke="#6E7079"></path>
<path d="M440.5 772L440.5 777" fill="none" stroke="#6E7079"></path>
<path d="M571.5 772L571.5 777" fill="none" stroke="#6E7079"></path>
<path d="M701.5 772L701.5 777" fill="none" stroke="#6E7079"></path>
<path d="M832.5 772L832.5 777" fill="none" stroke="#6E7079"></path>
<path d="M962.5 772L962.5 777" fill="none" stroke="#6E7079"></path>
<path d="M1092.5 772L1092.5 777" fill="none" stroke="#6E7079"></path>
<path d="M1223.5 772L1223.5 777" fill="none" stroke="#6E7079"></path>
<path d="M1353.5 772L1353.5 777" fill="none" stroke="#6E7079"></path>
<path d="M1484.5 772L1484.5 777" fill="none" stroke="#6E7079"></path>
<path d="M1614.5 772L1614.5 777" fill="none" stroke="#6E7079"></path>
<text dominant-baseline="central" text-anchor="end" style="font-size:12px;font-family:Microsoft YaHei;" transform="translate(171.4 772)" fill="#6E7079">0</text>
<text dominant-baseline="central" text-anchor="end" style="font-size:12px;font-family:Microsoft YaHei;" transform="translate(171.4 629.6)" fill="#6E7079">2,000</text>
<text dominant-baseline="central" text-anchor="end" style="font-size:12px;font-family:Microsoft YaHei;" transform="translate(171.4 487.2)" fill="#6E7079">4,000</text>
<text dominant-baseline="central" text-anchor="end" style="font-size:12px;font-family:Microsoft YaHei;" transform="translate(171.4 344.8)" fill="#6E7079">6,000</text>
<text dominant-baseline="central" text-anchor="end" style="font-size:12px;font-family:Microsoft YaHei;" transform="translate(171.4 202.4)" fill="#6E7079">8,000</text>
<text dominant-baseline="central" text-anchor="end" style="font-size:12px;font-family:Microsoft YaHei;" transform="translate(171.4 60)" fill="#6E7079">10,000</text>
<text dominant-baseline="central" text-anchor="middle" style="font-size:12px;font-family:Microsoft YaHei;" y="6" transform="translate(244.6364 780)" fill="#6E7079">easyloggingpp</text>
<text dominant-baseline="central" text-anchor="middle" style="font-size:12px;font-family:Microsoft YaHei;" y="6" transform="translate(375.1091 780)" fill="#6E7079">fmtlog</text>
<text dominant-baseline="central" text-anchor="middle" style="font-size:12px;font-family:Microsoft YaHei;" y="6" transform="translate(505.5818 780)" fill="#6E7079">glog</text>
<text dominant-baseline="central" text-anchor="middle" style="font-size:12px;font-family:Microsoft YaHei;" y="6" transform="translate(636.0545 780)" fill="#6E7079">haclog</text>
<text dominant-baseline="central" text-anchor="middle" style="font-size:12px;font-family:Microsoft YaHei;" y="6" transform="translate(766.5273 780)" fill="#6E7079">loguru</text>
<text dominant-baseline="central" text-anchor="middle" style="font-size:12px;font-family:Microsoft YaHei;" y="6" transform="translate(897 780)" fill="#6E7079">nanolog</text>
<text dominant-baseline="central" text-anchor="middle" style="font-size:12px;font-family:Microsoft YaHei;" y="6" transform="translate(1027.4727 780)" fill="#6E7079">quill_bounded</text>
<text dominant-baseline="central" text-anchor="middle" style="font-size:12px;font-family:Microsoft YaHei;" y="6" transform="translate(1157.9455 780)" fill="#6E7079">quill_unbounded</text>
<text dominant-baseline="central" text-anchor="middle" style="font-size:12px;font-family:Microsoft YaHei;" y="6" transform="translate(1288.4182 780)" fill="#6E7079">reckless</text>
<text dominant-baseline="central" text-anchor="middle" style="font-size:12px;font-family:Microsoft YaHei;" y="6" transform="translate(1418.8909 780)" fill="#6E7079">spdlog_async</text>
<text dominant-baseline="central" text-anchor="middle" style="font-size:12px;font-family:Microsoft YaHei;" y="6" transform="translate(1549.3636 780)" fill="#6E7079">spdlog_sync</text>
<path d="M191.7949 772l22.9745 0l0 -275.9l-22.9745 0Z" fill="#5470c6"></path>
<path d="M322.2676 772l22.9745 0l0 -6.707l-22.9745 0Z" fill="#5470c6"></path>
<path d="M452.7404 772l22.9745 0l0 -477.752l-22.9745 0Z" fill="rgb(84,112,198)"></path>
<path d="M583.2131 772l22.9745 0l0 -12.6024l-22.9745 0Z" fill="#5470c6"></path>
<path d="M713.6858 772l22.9745 0l0 -220.008l-22.9745 0Z" fill="rgb(84,112,198)"></path>
<path d="M844.1585 772l22.9745 0l0 -7.4048l-22.9745 0Z" fill="#5470c6"></path>
<path d="M974.6313 772l22.9745 0l0 -7.9032l-22.9745 0Z" fill="#5470c6"></path>
<path d="M1366.0495 772l22.9745 0l0 -58.384l-22.9745 0Z" fill="#5470c6"></path>
<path d="M1496.5222 772l22.9745 0l0 -53.1864l-22.9745 0Z" fill="#5470c6"></path>
<path d="M1105.104 772l22.9745 0l0 -4.984l-22.9745 0Z" fill="#5470c6"></path>
<path d="M1235.5767 772l22.9745 0l0 -31.4704l-22.9745 0Z" fill="rgb(84,112,198)"></path>
<path d="M219.3644 772l22.9745 0l0 -224.636l-22.9745 0Z" fill="rgb(145,204,117)"></path>
<path d="M349.8371 772l22.9745 0l0 -4.4785l-22.9745 0Z" fill="#91cc75"></path>
<path d="M480.3098 772l22.9745 0l0 -434.2488l-22.9745 0Z" fill="rgb(145,204,117)"></path>
<path d="M610.7825 772l22.9745 0l0 -2.1289l-22.9745 0Z" fill="#91cc75"></path>
<path d="M741.2553 772l22.9745 0l0 -274.9744l-22.9745 0Z" fill="rgb(145,204,117)"></path>
<path d="M871.728 772l22.9745 0l0 -1.4952l-22.9745 0Z" fill="#91cc75"></path>
<path d="M1002.2007 772l22.9745 0l0 -71.0576l-22.9745 0Z" fill="rgb(145,204,117)"></path>
<path d="M1393.6189 772l22.9745 0l0 -171.8056l-22.9745 0Z" fill="rgb(145,204,117)"></path>
<path d="M1524.0916 772l22.9745 0l0 -81.5952l-22.9745 0Z" fill="#91cc75"></path>
<path d="M1132.6735 772l22.9745 0l0 -32.8944l-22.9745 0Z" fill="rgb(145,204,117)"></path>
<path d="M1263.1462 772l22.9745 0l0 -32.9656l-22.9745 0Z" fill="#91cc75"></path>
<path d="M246.9338 772l22.9745 0l0 -217.3736l-22.9745 0Z" fill="rgb(250,200,88)"></path>
<path d="M377.4065 772l22.9745 0l0 -3.2254l-22.9745 0Z" fill="#fac858"></path>
<path d="M507.8793 772l22.9745 0l0 -637.3824l-22.9745 0Z" fill="rgb(250,200,88)"></path>
<path d="M638.352 772l22.9745 0l0 -2.2001l-22.9745 0Z" fill="#fac858"></path>
<path d="M768.8247 772l22.9745 0l0 -450.9096l-22.9745 0Z" fill="rgb(250,200,88)"></path>
<path d="M899.2975 772l22.9745 0l0 -0.8188l-22.9745 0Z" fill="#fac858"></path>
<path d="M1029.7702 772l22.9745 0l0 -82.948l-22.9745 0Z" fill="rgb(250,200,88)"></path>
<path d="M1421.1884 772l22.9745 0l0 -179.9224l-22.9745 0Z" fill="rgb(250,200,88)"></path>
<path d="M1551.6611 772l22.9745 0l0 -98.5408l-22.9745 0Z" fill="rgb(250,200,88)"></path>
<path d="M1160.2429 772l22.9745 0l0 -48.8432l-22.9745 0Z" fill="#fac858"></path>
<path d="M1290.7156 772l22.9745 0l0 -31.1856l-22.9745 0Z" fill="rgb(250,200,88)"></path>
<path d="M274.5033 772l22.9745 0l0 -207.548l-22.9745 0Z" fill="rgb(238,102,102)"></path>
<path d="M404.976 772l22.9745 0l0 -2.613l-22.9745 0Z" fill="#ee6666"></path>
<path d="M535.4487 772l22.9745 0l0 -662.0176l-22.9745 0Z" fill="rgb(238,102,102)"></path>
<path d="M665.9215 772l22.9745 0l0 -1.189l-22.9745 0Z" fill="#ee6666"></path>
<path d="M796.3942 772l22.9745 0l0 -448.8448l-22.9745 0Z" fill="rgb(238,102,102)"></path>
<path d="M926.8669 772l22.9745 0l0 -0.4763l-22.9745 0Z" fill="#ee6666"></path>
<path d="M1057.3396 772l22.9745 0l0 -82.948l-22.9745 0Z" fill="rgb(238,102,102)"></path>
<path d="M1448.7578 772l22.9745 0l0 -176.7896l-22.9745 0Z" fill="rgb(238,102,102)"></path>
<path d="M1579.2305 772l22.9745 0l0 -103.5248l-22.9745 0Z" fill="#ee6666"></path>
<path d="M1187.8124 772l22.9745 0l0 -48.06l-22.9745 0Z" fill="rgb(238,102,102)"></path>
<path d="M1318.2851 772l22.9745 0l0 -27.768l-22.9745 0Z" fill="#ee6666"></path>
<path d="M-5 -5l388.1992 0l0 24l-388.1992 0Z" transform="translate(707.9004 5)" fill="rgb(0,0,0)" fill-opacity="0" stroke="#ccc" stroke-width="0"></path>
<path d="M3.5 0L21.5 0A3.5 3.5 0 0 1 25 3.5L25 10.5A3.5 3.5 0 0 1 21.5 14L3.5 14A3.5 3.5 0 0 1 0 10.5L0 3.5A3.5 3.5 0 0 1 3.5 0" transform="translate(707.9004 5)" fill="#5470c6"></path>
<text dominant-baseline="central" text-anchor="start" style="font-size:12px;font-family:Microsoft YaHei;" xml:space="preserve" x="30" y="7" transform="translate(707.9004 5)" fill="#333">1 threads</text>
<path d="M3.5 0L21.5 0A3.5 3.5 0 0 1 25 3.5L25 10.5A3.5 3.5 0 0 1 21.5 14L3.5 14A3.5 3.5 0 0 1 0 10.5L0 3.5A3.5 3.5 0 0 1 3.5 0" transform="translate(801.4316 5)" fill="#91cc75"></path>
<text dominant-baseline="central" text-anchor="start" style="font-size:12px;font-family:Microsoft YaHei;" xml:space="preserve" x="30" y="7" transform="translate(801.4316 5)" fill="#333">6 threads</text>
<path d="M3.5 0L21.5 0A3.5 3.5 0 0 1 25 3.5L25 10.5A3.5 3.5 0 0 1 21.5 14L3.5 14A3.5 3.5 0 0 1 0 10.5L0 3.5A3.5 3.5 0 0 1 3.5 0" transform="translate(894.9629 5)" fill="#fac858"></path>
<text dominant-baseline="central" text-anchor="start" style="font-size:12px;font-family:Microsoft YaHei;" xml:space="preserve" x="30" y="7" transform="translate(894.9629 5)" fill="#333">12 threads</text>
<path d="M3.5 0L21.5 0A3.5 3.5 0 0 1 25 3.5L25 10.5A3.5 3.5 0 0 1 21.5 14L3.5 14A3.5 3.5 0 0 1 0 10.5L0 3.5A3.5 3.5 0 0 1 3.5 0" transform="translate(995.5313 5)" fill="#ee6666"></path>
<text dominant-baseline="central" text-anchor="start" style="font-size:12px;font-family:Microsoft YaHei;" xml:space="preserve" x="30" y="7" transform="translate(995.5313 5)" fill="#333">24 threads</text>
</svg>