<svg width="1320" height="842" xmlns="http://www.w3.org/2000/svg" xmlns:xlink="http://www.w3.org/1999/xlink" version="1.1" baseProfile="full" viewBox="0 0 1320 842">
<rect width="1320" height="842" x="0" y="0" id="0" fill="none"></rect>
<path d="M132 772.5L1188 772.5" fill="none" stroke="#E0E6F1"></path>
<path d="M132 670.5L1188 670.5" fill="none" stroke="#E0E6F1"></path>
<path d="M132 568.5L1188 568.5" fill="none" stroke="#E0E6F1"></path>
<path d="M132 467.5L1188 467.5" fill="none" stroke="#E0E6F1"></path>
<path d="M132 365.5L1188 365.5" fill="none" stroke="#E0E6F1"></path>
<path d="M132 263.5L1188 263.5" fill="none" stroke="#E0E6F1"></path>
<path d="M132 161.5L1188 161.5" fill="none" stroke="#E0E6F1"></path>
<path d="M132 60.5L1188 60.5" fill="none" stroke="#E0E6F1"></path>
<path d="M132 772.5L1188 772.5" fill="none" stroke="#6E7079" stroke-linecap="round"></path>
<path d="M132.5 772L132.5 777" fill="none" stroke="#6E7079"></path>
<path d="M249.5 772L249.5 777" fill="none" stroke="#6E7079"></path>
<path d="M366.5 772L366.5 777" fill="none" stroke="#6E7079"></path>
<path d="M484.5 772L484.5 777" fill="none" stroke="#6E7079"></path>
<path d="M601.5 772L601.5 777" fill="none" stroke="#6E7079"></path>
<path d="M718.5 772L718.5 777" fill="none" stroke="#6E7079"></path>
<path d="M836.5 772L836.5 777" fill="none" stroke="#6E7079"></path>
<path d="M953.5 772L953.5 777" fill="none" stroke="#6E7079"></path>
<path d="M1070.5 772L1070.5 777" fill="none" stroke="#6E7079"></path>
<path d="M1188.5 772L1188.5 777" fill="none" stroke="#6E7079"></path>
<text dominant-baseline="central" text-anchor="end" style="font-size:12px;font-family:Microsoft YaHei;" transform="translate(124 772)" fill="#6E7079">0</text>
<text dominant-baseline="central" text-anchor="end" style="font-size:12px;font-family:Microsoft YaHei;" transform="translate(124 670.2857)" fill="#6E7079">2,000</text>
<text dominant-baseline="central" text-anchor="end" style="font-size:12px;font-family:Microsoft YaHei;" transform="translate(124 568.5714)" fill="#6E7079">4,000</text>
<text dominant-baseline="central" text-anchor="end" style="font-size:12px;font-family:Microsoft YaHei;" transform="translate(124 466.8571)" fill="#6E7079">6,000</text>
<text dominant-baseline="central" text-anchor="end" style="font-size:12px;font-family:Microsoft YaHei;" transform="translate(124 365.1429)" fill="#6E7079">8,000</text>
<text dominant-baseline="central" text-anchor="end" style="font-size:12px;font-family:Microsoft YaHei;" transform="translate(124 263.4286)" fill="#6E7079">10,000</text>
<text dominant-baseline="central" text-anchor="end" style="font-size:12px;font-family:Microsoft YaHei;" transform="translate(124 161.7143)" fill="#6E7079">12,000</text>
<text dominant-baseline="central" text-anchor="end" style="font-size:12px;font-family:Microsoft YaHei;" transform="translate(124 60)" fill="#6E7079">14,000</text>
<text dominant-baseline="central" text-anchor="middle" style="font-size:12px;font-family:Microsoft YaHei;" y="6" transform="translate(190.6667 780)" fill="#6E7079">easyloggingpp</text>
<text dominant-baseline="central" text-anchor="middle" style="font-size:12px;font-family:Microsoft YaHei;" y="6" transform="translate(308 780)" fill="#6E7079">fmtlog</text>
<text dominant-baseline="central" text-anchor="middle" style="font-size:12px;font-family:Microsoft YaHei;" y="6" transform="translate(425.3333 780)" fill="#6E7079">glog</text>
<text dominant-baseline="central" text-anchor="middle" style="font-size:12px;font-family:Microsoft YaHei;" y="6" transform="translate(542.6667 780)" fill="#6E7079">haclog</text>
<text dominant-baseline="central" text-anchor="middle" style="font-size:12px;font-family:Microsoft YaHei;" y="6" transform="translate(660 780)" fill="#6E7079">loguru</text>
<text dominant-baseline="central" text-anchor="middle" style="font-size:12px;font-family:Microsoft YaHei;" y="6" transform="translate(777.3333 780)" fill="#6E7079">nanolog</text>
<text dominant-baseline="central" text-anchor="middle" style="font-size:12px;font-family:Microsoft YaHei;" y="6" transform="translate(894.6667 780)" fill="#6E7079">quill_bounded</text>
<text dominant-baseline="central" text-anchor="middle" style="font-size:12px;font-family:Microsoft YaHei;" y="6" transform="translate(1012 780)" fill="#6E7079">spdlog_async</text>
<text dominant-baseline="central" text-anchor="middle" style="font-size:12px;font-family:Microsoft YaHei;" y="6" transform="translate(1129.3333 780)" fill="#6E7079">spdlog_sync</text>
<path d="M143.1467 772l20.6609 0l0 -161.5223l-20.6609 0Z" fill="#5470c6"></path>
<path d="M260.48 772l20.6609 0l0 -3.3769l-20.6609 0Z" fill="#5470c6"></path>
<path d="M377.8133 772l20.6609 0l0 -262.7789l-20.6609 0Z" fill="#5470c6"></path>
<path d="M495.1467 772l20.6609 0l0 -7.4251l-20.6609 0Z" fill="#5470c6"></path>
<path d="M612.48 772l20.6609 0l0 -152.5714l-20.6609 0Z" fill="#5470c6"></path>
<path d="M729.8133 772l20.6609 0l0 -10.1714l-20.6609 0Z" fill="#5470c6"></path>
<path d="M847.1467 772l20.6609 0l0 -2.4513l-20.6609 0Z" fill="#5470c6"></path>
<path d="M964.48 772l20.6609 0l0 -43.076l-20.6609 0Z" fill="#5470c6"></path>
<path d="M1081.8133 772l20.6609 0l0 -32.5486l-20.6609 0Z" fill="#5470c6"></path>
<path d="M167.9397 772l20.6609 0l0 -325.9943l-20.6609 0Z" fill="rgb(145,204,117)"></path>
<path d="M285.273 772l20.6609 0l0 -2.3547l-20.6609 0Z" fill="#91cc75"></path>
<path d="M402.6064 772l20.6609 0l0 -349.7446l-20.6609 0Z" fill="#91cc75"></path>
<path d="M519.9397 772l20.6609 0l0 -5.1366l-20.6609 0Z" fill="#91cc75"></path>
<path d="M637.273 772l20.6609 0l0 -288.6143l-20.6609 0Z" fill="#91cc75"></path>
<path d="M754.6064 772l20.6609 0l0 -15.2571l-20.6609 0Z" fill="#91cc75"></path>
<path d="M871.9397 772l20.6609 0l0 -2.4717l-20.6609 0Z" fill="#91cc75"></path>
<path d="M989.273 772l20.6609 0l0 -77.4046l-20.6609 0Z" fill="#91cc75"></path>
<path d="M1106.6064 772l20.6609 0l0 -65.2497l-20.6609 0Z" fill="#91cc75"></path>
<path d="M192.7328 772l20.6609 0l0 -301.5829l-20.6609 0Z" fill="#fac858"></path>
<path d="M310.0661 772l20.6609 0l0 -2.6039l-20.6609 0Z" fill="#fac858"></path>
<path d="M427.3994 772l20.6609 0l0 -402.5343l-20.6609 0Z" fill="#fac858"></path>
<path d="M544.7328 772l20.6609 0l0 -8.2897l-20.6609 0Z" fill="#fac858"></path>
<path d="M662.0661 772l20.6609 0l0 -255.9131l-20.6609 0Z" fill="#fac858"></path>
<path d="M779.3994 772l20.6609 0l0 -16.9354l-20.6609 0Z" fill="#fac858"></path>
<path d="M896.7328 772l20.6609 0l0 -1.5155l-20.6609 0Z" fill="#fac858"></path>
<path d="M1014.0661 772l20.6609 0l0 -129.0754l-20.6609 0Z" fill="#fac858"></path>
<path d="M1131.3994 772l20.6609 0l0 -71.912l-20.6609 0Z" fill="#fac858"></path>
<path d="M217.5258 772l20.6609 0l0 -278.2394l-20.6609 0Z" fill="#ee6666"></path>
<path d="M334.8591 772l20.6609 0l0 -2.9599l-20.6609 0Z" fill="#ee6666"></path>
<path d="M452.1925 772l20.6609 0l0 -617.8126l-20.6609 0Z" fill="#ee6666"></path>
<path d="M569.5258 772l20.6609 0l0 -134.1103l-20.6609 0Z" fill="#ee6666"></path>
<path d="M686.8591 772l20.6609 0l0 -200.5297l-20.6609 0Z" fill="#ee6666"></path>
<path d="M804.1925 772l20.6609 0l0 -24.6149l-20.6609 0Z" fill="#ee6666"></path>
<path d="M921.5258 772l20.6609 0l0 -1.1443l-20.6609 0Z" fill="#ee6666"></path>
<path d="M1038.8591 772l20.6609 0l0 -193.3589l-20.6609 0Z" fill="#ee6666"></path>
<path d="M1156.1925 772l20.6609 0l0 -92.7126l-20.6609 0Z" fill="#ee6666"></path>
<path d="M-5 -5l368.5703 0l0 24l-368.5703 0Z" transform="translate(480.7148 5)" fill="rgb(0,0,0)" fill-opacity="0" stroke="#ccc" stroke-width="0"></path>
<path d="M3.5 0L21.5 0A3.5 3.5 0 0 1 25 3.5L25 10.5A3.5 3.5 0 0 1 21.5 14L3.5 14A3.5 3.5 0 0 1 0 10.5L0 3.5A3.5 3.5 0 0 1 3.5 0" transform="translate(480.7148 5)" fill="#5470c6"></path>
<text dominant-baseline="central" text-anchor="start" style="font-size:12px;font-family:Microsoft YaHei;" xml:space="preserve" x="30" y="7" transform="translate(480.7148 5)" fill="#333">1 thread</text>
<path d="M3.5 0L21.5 0A3.5 3.5 0 0 1 25 3.5L25 10.5A3.5 3.5 0 0 1 21.5 14L3.5 14A3.5 3.5 0 0 1 0 10.5L0 3.5A3.5 3.5 0 0 1 3.5 0" transform="translate(568.6914 5)" fill="#91cc75"></path>
<text dominant-baseline="central" text-anchor="start" style="font-size:12px;font-family:Microsoft YaHei;" xml:space="preserve" x="30" y="7" transform="translate(568.6914 5)" fill="#333">2 threads</text>
<path d="M3.5 0L21.5 0A3.5 3.5 0 0 1 25 3.5L25 10.5A3.5 3.5 0 0 1 21.5 14L3.5 14A3.5 3.5 0 0 1 0 10.5L0 3.5A3.5 3.5 0 0 1 3.5 0" transform="translate(662.2227 5)" fill="#fac858"></path>
<text dominant-baseline="central" text-anchor="start" style="font-size:12px;font-family:Microsoft YaHei;" xml:space="preserve" x="30" y="7" transform="translate(662.2227 5)" fill="#333">4 threads</text>
<path d="M3.5 0L21.5 0A3.5 3.5 0 0 1 25 3.5L25 10.5A3.5 3.5 0 0 1 21.5 14L3.5 14A3.5 3.5 0 0 1 0 10.5L0 3.5A3.5 3.5 0 0 1 3.5 0" transform="translate(755.7539 5)" fill="#ee6666"></path>
<text dominant-baseline="central" text-anchor="start" style="font-size:12px;font-family:Microsoft YaHei;" xml:space="preserve" x="30" y="7" transform="translate(755.7539 5)" fill="#333">8 threads</text>
</svg>