<svg width="1794" height="842" xmlns="http://www.w3.org/2000/svg" xmlns:xlink="http://www.w3.org/1999/xlink" version="1.1" baseProfile="full" viewBox="0 0 1794 842">
<rect width="1794" height="842" x="0" y="0" id="0" fill="none"></rect>
<path d="M179.4 772.5L1614.6 772.5" fill="none" stroke="#E0E6F1"></path>
<path d="M179.4 653.5L1614.6 653.5" fill="none" stroke="#E0E6F1"></path>
<path d="M179.4 534.5L1614.6 534.5" fill="none" stroke="#E0E6F1"></path>
<path d="M179.4 416.5L1614.6 416.5" fill="none" stroke="#E0E6F1"></path>
<path d="M179.4 297.5L1614.6 297.5" fill="none" stroke="#E0E6F1"></path>
<path d="M179.4 178.5L1614.6 178.5" fill="none" stroke="#E0E6F1"></path>
<path d="M179.4 60.5L1614.6 60.5" fill="none" stroke="#E0E6F1"></path>
<path d="M179.4 772.5L1614.6 772.5" fill="none" stroke="#6E7079" stroke-linecap="round"></path>
<path d="M179.5 772L179.5 777" fill="none" stroke="#6E7079"></path>
<path d="M339.5 772L339.5 777" fill="none" stroke="#6E7079"></path>
<path d="M498.5 772L498.5 777" fill="none" stroke="#6E7079"></path>
<path d="M658.5 772L658.5 777" fill="none" stroke="#6E7079"></path>
<path d="M817.5 772L817.5 777" fill="none" stroke="#6E7079"></path>
<path d="M976.5 772L976.5 777" fill="none" stroke="#6E7079"></path>
<path d="M1136.5 772L1136.5 777" fill="none" stroke="#6E7079"></path>
<path d="M1295.5 772L1295.5 777" fill="none" stroke="#6E7079"></path>
<path d="M1455.5 772L1455.5 777" fill="none" stroke="#6E7079"></path>
<path d="M1614.5 772L1614.5 777" fill="none" stroke="#6E7079"></path>
<text dominant-baseline="central" text-anchor="end" style="font-size:12px;font-family:Microsoft YaHei;" transform="translate(171.4 772)" fill="#6E7079">0</text>
<text dominant-baseline="central" text-anchor="end" style="font-size:12px;font-family:Microsoft YaHei;" transform="translate(171.4 653.3333)" fill="#6E7079">1,000</text>
<text dominant-baseline="central" text-anchor="end" style="font-size:12px;font-family:Microsoft YaHei;" transform="translate(171.4 534.6667)" fill="#6E7079">2,000</text>
<text dominant-baseline="central" text-anchor="end" style="font-size:12px;font-family:Microsoft YaHei;" transform="translate(171.4 416)" fill="#6E7079">3,000</text>
<text dominant-baseline="central" text-anchor="end" style="font-size:12px;font-family:Microsoft YaHei;" transform="translate(171.4 297.3333)" fill="#6E7079">4,000</text>
<text dominant-baseline="central" text-anchor="end" style="font-size:12px;font-family:Microsoft YaHei;" transform="translate(171.4 178.6667)" fill="#6E7079">5,000</text>
<text dominant-baseline="central" text-anchor="end" style="font-size:12px;font-family:Microsoft YaHei;" transform="translate(171.4 60)" fill="#6E7079">6,000</text>
<text dominant-baseline="central" text-anchor="middle" style="font-size:12px;font-family:Microsoft YaHei;" y="6" transform="translate(259.1333 780)" fill="#6E7079">easyloggingpp</text>
<text dominant-baseline="central" text-anchor="middle" style="font-size:12px;font-family:Microsoft YaHei;" y="6" transform="translate(418.6 780)" fill="#6E7079">fmtlog</text>
<text dominant-baseline="central" text-anchor="middle" style="font-size:12px;font-family:Microsoft YaHei;" y="6" transform="translate(578.0667 780)" fill="#6E7079">glog</text>
<text dominant-baseline="central" text-anchor="middle" style="font-size:12px;font-family:Microsoft YaHei;" y="6" transform="translate(737.5333 780)" fill="#6E7079">haclog</text>
<text dominant-baseline="central" text-anchor="middle" style="font-size:12px;font-family:Microsoft YaHei;" y="6" transform="translate(897 780)" fill="#6E7079">loguru</text>
<text dominant-baseline="central" text-anchor="middle" style="font-size:12px;font-family:Microsoft YaHei;" y="6" transform="translate(1056.4667 780)" fill="#6E7079">nanolog</text>
<text dominant-baseline="central" text-anchor="middle" style="font-size:12px;font-family:Microsoft YaHei;" y="6" transform="translate(1215.9333 780)" fill="#6E7079">quill_bounded</text>
<text dominant-baseline="central" text-anchor="middle" style="font-size:12px;font-family:Microsoft YaHei;" y="6" transform="translate(1375.4 780)" fill="#6E7079">spdlog_async</text>
<text dominant-baseline="central" text-anchor="middle" style="font-size:12px;font-family:Microsoft YaHei;" y="6" transform="translate(1534.8667 780)" fill="#6E7079">spdlog_sync</text>
<path d="M194.5493 772l28.08 0l0 -460.5453l-28.08 0Z" fill="#5470c6"></path>
<path d="M354.016 772l28.08 0l0 -7.0844l-28.08 0Z" fill="#5470c6"></path>
<path d="M513.4827 772l28.08 0l0 -550.1387l-28.08 0Z" fill="#5470c6"></path>
<path d="M672.9493 772l28.08 0l0 -15.4267l-28.08 0Z" fill="#5470c6"></path>
<path d="M832.416 772l28.08 0l0 -332.148l-28.08 0Z" fill="#5470c6"></path>
<path d="M991.8827 772l28.08 0l0 -20.0547l-28.08 0Z" fill="#5470c6"></path>
<path d="M1151.3493 772l28.08 0l0 -6.3605l-28.08 0Z" fill="#5470c6"></path>
<path d="M1310.816 772l28.08 0l0 -77.1333l-28.08 0Z" fill="#5470c6"></path>
<path d="M1470.2827 772l28.08 0l0 -67.5213l-28.08 0Z" fill="#5470c6"></path>
<path d="M228.2453 772l28.08 0l0 -519.5227l-28.08 0Z" fill="#91cc75"></path>
<path d="M387.712 772l28.08 0l0 -3.5244l-28.08 0Z" fill="#91cc75"></path>
<path d="M547.1787 772l28.08 0l0 -495.552l-28.08 0Z" fill="#91cc75"></path>
<path d="M706.6453 772l28.08 0l0 -8.01l-28.08 0Z" fill="#91cc75"></path>
<path d="M866.112 772l28.08 0l0 -492.2293l-28.08 0Z" fill="#91cc75"></path>
<path d="M1025.5787 772l28.08 0l0 -30.4973l-28.08 0Z" fill="#91cc75"></path>
<path d="M1185.0453 772l28.08 0l0 -3.1091l-28.08 0Z" fill="#91cc75"></path>
<path d="M1344.512 772l28.08 0l0 -113.4453l-28.08 0Z" fill="#91cc75"></path>
<path d="M1503.9787 772l28.08 0l0 -95.764l-28.08 0Z" fill="#91cc75"></path>
<path d="M261.9413 772l28.08 0l0 -498.4l-28.08 0Z" fill="#fac858"></path>
<path d="M421.408 772l28.08 0l0 -1.7563l-28.08 0Z" fill="#fac858"></path>
<path d="M580.8747 772l28.08 0l0 -484.872l-28.08 0Z" fill="#fac858"></path>
<path d="M740.3413 772l28.08 0l0 -5.4824l-28.08 0Z" fill="#fac858"></path>
<path d="M899.808 772l28.08 0l0 -562.5987l-28.08 0Z" fill="#fac858"></path>
<path d="M1059.2747 772l28.08 0l0 -29.548l-28.08 0Z" fill="#fac858"></path>
<path d="M1218.7413 772l28.08 0l0 -1.5427l-28.08 0Z" fill="#fac858"></path>
<path d="M1378.208 772l28.08 0l0 -172.8973l-28.08 0Z" fill="#fac858"></path>
<path d="M1537.6747 772l28.08 0l0 -105.9693l-28.08 0Z" fill="#fac858"></path>
<path d="M295.6373 772l28.08 0l0 -396.3467l-28.08 0Z" fill="#ee6666"></path>
<path d="M455.104 772l28.08 0l0 -0.9909l-28.08 0Z" fill="#ee6666"></path>
<path d="M614.5707 772l28.08 0l0 -634.1547l-28.08 0Z" fill="#ee6666"></path>
<path d="M774.0373 772l28.08 0l0 -117.836l-28.08 0Z" fill="#ee6666"></path>
<path d="M933.504 772l28.08 0l0 -452.2387l-28.08 0Z" fill="#ee6666"></path>
<path d="M1092.9707 772l28.08 0l0 -35.6l-28.08 0Z" fill="#ee6666"></path>
<path d="M1252.4373 772l28.08 0l0 -0.9102l-28.08 0Z" fill="#ee6666"></path>
<path d="M1411.904 772l28.08 0l0 -201.496l-28.08 0Z" fill="#ee6666"></path>
<path d="M1571.3707 772l28.08 0l0 -115.9373l-28.08 0Z" fill="#ee6666"></path>
<path d="M-5 -5l368.5703 0l0 24l-368.5703 0Z" transform="translate(717.7148 5)" fill="rgb(0,0,0)" fill-opacity="0" stroke="#ccc" stroke-width="0"></path>
<path d="M3.5 0L21.5 0A3.5 3.5 0 0 1 25 3.5L25 10.5A3.5 3.5 0 0 1 21.5 14L3.5 14A3.5 3.5 0 0 1 0 10.5L0 3.5A3.5 3.5 0 0 1 3.5 0" transform="translate(717.7148 5)" fill="#5470c6"></path>
<text dominant-baseline="central" text-anchor="start" style="font-size:12px;font-family:Microsoft YaHei;" xml:space="preserve" x="30" y="7" transform="translate(717.7148 5)" fill="#333">1 thread</text>
<path d="M3.5 0L21.5 0A3.5 3.5 0 0 1 25 3.5L25 10.5A3.5 3.5 0 0 1 21.5 14L3.5 14A3.5 3.5 0 0 1 0 10.5L0 3.5A3.5 3.5 0 0 1 3.5 0" transform="translate(805.6914 5)" fill="#91cc75"></path>
<text dominant-baseline="central" text-anchor="start" style="font-size:12px;font-family:Microsoft YaHei;" xml:space="preserve" x="30" y="7" transform="translate(805.6914 5)" fill="#333">2 threads</text>
<path d="M3.5 0L21.5 0A3.5 3.5 0 0 1 25 3.5L25 10.5A3.5 3.5 0 0 1 21.5 14L3.5 14A3.5 3.5 0 0 1 0 10.5L0 3.5A3.5 3.5 0 0 1 3.5 0" transform="translate(899.2227 5)" fill="#fac858"></path>
<text dominant-baseline="central" text-anchor="start" style="font-size:12px;font-family:Microsoft YaHei;" xml:space="preserve" x="30" y="7" transform="translate(899.2227 5)" fill="#333">4 threads</text>
<path d="M3.5 0L21.5 0A3.5 3.5 0 0 1 25 3.5L25 10.5A3.5 3.5 0 0 1 21.5 14L3.5 14A3.5 3.5 0 0 1 0 10.5L0 3.5A3.5 3.5 0 0 1 3.5 0" transform="translate(992.7539 5)" fill="#ee6666"></path>
<text dominant-baseline="central" text-anchor="start" style="font-size:12px;font-family:Microsoft YaHei;" xml:space="preserve" x="30" y="7" transform="translate(992.7539 5)" fill="#333">8 threads</text>
</svg>